<?xml version="1.0" encoding="UTF-8" standalone="no"?>
<!-- Created with Inkscape (http://www.inkscape.org/) -->

<svg
   width="13.969996mm"
   height="13.758334mm"
   viewBox="0 0 13.969996 13.758334"
   version="1.1"
   id="svg1"
   xml:space="preserve"
   xmlns:inkscape="http://www.inkscape.org/namespaces/inkscape"
   xmlns:sodipodi="http://sodipodi.sourceforge.net/DTD/sodipodi-0.dtd"
   xmlns="http://www.w3.org/2000/svg"
   xmlns:svg="http://www.w3.org/2000/svg"><sodipodi:namedview
     id="namedview1"
     pagecolor="#ffffff"
     bordercolor="#000000"
     borderopacity="0.25"
     inkscape:showpageshadow="2"
     inkscape:pageopacity="0.0"
     inkscape:pagecheckerboard="0"
     inkscape:deskcolor="#d1d1d1"
     inkscape:document-units="mm" /><defs
     id="defs1" /><g
     inkscape:label="Layer 1"
     inkscape:groupmode="layer"
     id="layer1"
     transform="translate(-143.47646,-101.91906)"><path
       style="fill:#ffffff"
       d="m 143.60493,115.34259 c -0.0707,-0.18414 -0.12848,-3.16547 -0.12848,-6.62517 v -6.29035 l 0.254,-0.254 0.254,-0.254 h 6.51189 6.51188 l 0.21912,0.40942 0.21911,0.40942 v 5.9268 5.9268 l -0.20643,0.54295 -0.20643,0.54294 h -1.91023 -1.91024 v -2.54 -2.54 h 0.71491 0.71492 l 0.20821,-0.26458 c 0.11452,-0.14552 0.26305,-0.62164 0.33006,-1.05803 l 0.12185,-0.79346 -0.39606,-0.21196 c -0.21783,-0.11658 -0.68807,-0.21197 -1.04498,-0.21197 h -0.64891 v -0.83922 -0.83922 l 0.40941,-0.21911 c 0.22518,-0.12051 0.70665,-0.21911 1.06994,-0.21911 h 0.66051 l -0.0645,-1.00542 -0.0645,-1.00542 -1.20771,-0.0632 -1.20771,-0.0632 -0.64079,0.33137 -0.64079,0.33136 -0.29927,0.57873 c -0.1646,0.31829 -0.36636,1.11567 -0.44835,1.77195 l -0.14909,1.19324 -0.82523,0.13196 -0.82523,0.13196 v 1.03319 1.03318 l 0.33481,0.12848 c 0.18415,0.0707 0.55496,0.12848 0.82402,0.12848 h 0.48921 l 0.12848,0.33481 c 0.16645,0.43377 0.16346,1.80847 -0.008,3.44414 l -0.13598,1.30105 h -3.43972 -3.4397 z"
       id="path1" /></g></svg>
