<?xml version="1.0" encoding="UTF-8" standalone="no"?>
<!-- Created with Inkscape (http://www.inkscape.org/) -->

<svg
   width="497.68121mm"
   height="250.78043mm"
   viewBox="0 0 497.68121 250.78043"
   version="1.1"
   id="svg1"
   xml:space="preserve"
   xmlns:inkscape="http://www.inkscape.org/namespaces/inkscape"
   xmlns:sodipodi="http://sodipodi.sourceforge.net/DTD/sodipodi-0.dtd"
   xmlns="http://www.w3.org/2000/svg"
   xmlns:svg="http://www.w3.org/2000/svg"><sodipodi:namedview
     id="namedview1"
     pagecolor="#ffffff"
     bordercolor="#000000"
     borderopacity="0.25"
     inkscape:showpageshadow="2"
     inkscape:pageopacity="0.0"
     inkscape:pagecheckerboard="0"
     inkscape:deskcolor="#d1d1d1"
     inkscape:document-units="mm" /><defs
     id="defs1" /><g
     inkscape:label="Layer 1"
     inkscape:groupmode="layer"
     id="layer1"
     transform="translate(149.55858,-6.0281556)"><path
       style="fill:#ffffff"
       d="m -149.55859,256.68906 c 0,-0.0657 1.31717,-4.14363 2.92706,-9.06198 5.6972,-17.40554 6.59964,-20.16938 10.17667,-31.16746 1.98783,-6.11188 4.60676,-14.1486 5.81984,-17.85938 1.21307,-3.71078 4.00942,-12.28328 6.2141,-19.05 2.20468,-6.76672 4.28546,-13.13656 4.62396,-14.15521 0.3385,-1.01864 2.06795,-6.31692 3.84322,-11.77396 1.77527,-5.45703 3.43802,-10.27906 3.69501,-10.71562 0.25699,-0.43656 0.98167,-1.80578 1.61041,-3.04271 0.62875,-1.23693 1.69604,-3.26099 2.37176,-4.49792 1.0764,-1.97039 3.54397,-6.6347 5.26991,-9.96142 0.31328,-0.60384 3.561081,-4.23525 7.21734,-8.06979 3.656259,-3.83455 8.740398,-9.17156 11.298084,-11.86003 2.557687,-2.68846 5.840965,-6.139079 7.296173,-7.668029 1.455208,-1.52896 3.950334,-4.15134 5.544723,-5.82751 1.594389,-1.67618 3.861567,-4.05962 5.038174,-5.29655 1.176607,-1.23693 5.756994,-6.05896 10.178639,-10.71562 4.421644,-4.65667 9.238685,-9.72263 10.704534,-11.25769 1.465849,-1.53505 3.736743,-3.91953 5.04643,-5.29884 9.855376,-10.37925 11.857134,-12.48507 13.502257,-14.20417 l 1.86059,-1.94426 8.45816,-2.5091 c 4.651988,-1.38001 10.3631593,-3.08634 12.6914923,-3.791844 2.328333,-0.705507 6.8527081,-2.062984 10.054167,-3.016614 C 26.05396,27.935285 47.594057,21.50253 68.987239,15.098175 c 6.184635,-1.851459 11.8401,-3.542245 12.56771,-3.757303 0.7276,-0.215057 5.02194,-1.498396 9.54297,-2.851865 l 8.22005,-2.460851 4.215371,1.275388 c 2.31845,0.701464 9.8113,2.945032 16.65077,4.985708 6.83948,2.040676 17.61464,5.258295 23.9448,7.150264 6.33015,1.891969 16.15281,4.820518 21.82812,6.507885 5.67531,1.687368 10.85453,3.234238 11.50938,3.43749 0.65484,0.203251 5.23875,1.577703 10.18645,3.054337 36.99806,11.042003 36.49245,10.888633 36.6448,11.115363 0.13696,0.20383 7.26079,7.73786 9.12812,9.65374 1.64402,1.68675 5.9274,6.183 10.71563,11.24816 2.40109,2.53997 5.50469,5.81146 6.89689,7.27 5.32759,5.58143 7.34175,7.70258 7.95077,8.37309 0.6251,0.68822 7.20295,7.60116 12.80129,13.45342 1.60073,1.67333 3.08902,3.22952 3.3073,3.4582 0.21828,0.22869 2.3614,2.48946 4.7625,5.023939 8.10912,8.5596 13.02424,13.71144 17.49122,18.33364 3.41939,3.53821 3.95931,4.323 7.04047,10.23354 0.94825,1.81902 2.23369,4.2598 2.85653,5.42396 3.76899,7.04466 4.36178,8.17108 4.36178,8.28829 0,0.12451 5.72113,17.72077 7.54215,23.19713 0.4839,1.45521 2.3877,7.28927 4.23068,12.96458 2.96961,9.14472 5.44404,16.73801 13.10543,40.21667 1.13965,3.4925 3.87445,11.88641 6.07733,18.65312 2.20288,6.76672 4.35437,13.37499 4.78107,14.68503 0.42671,1.31005 0.77584,2.47091 0.77584,2.57969 0,0.10878 -111.97828,0.19778 -248.840631,0.19778 -136.862342,0 -248.840619,-0.0538 -248.840619,-0.11951 z m 175.007093,-3.19344 c 1.149254,-0.34862 10.115172,-0.39604 73.818746,-0.39043 63.388741,0.006 72.674011,0.0559 73.809441,0.39968 0.71435,0.21631 1.44139,0.39329 1.61565,0.39329 0.19872,0 0.37942,-0.67349 0.48474,-1.80671 0.18014,-1.93817 -0.44403,-0.55314 9.06998,-20.12624 1.65491,-3.40464 3.00893,-6.23237 3.00893,-6.28386 0,-0.0515 -0.71438,-0.0936 -1.5875,-0.0936 h -1.5875 v -19.57917 -19.57916 h 4.06685 4.06686 l 0.17975,1.91823 c 0.28771,3.07039 0.22489,3.02409 2.04648,1.50815 2.95427,-2.45857 7.45409,-4.21979 10.7829,-4.22041 l 1.47903,-2.7e-4 5.14692,-10.64921 c 2.83081,-5.85706 7.02776,-14.50398 9.32656,-19.21537 2.29881,-4.71139 4.17965,-8.6678 4.17965,-8.79202 0,-0.12421 0.48532,-0.47344 1.0785,-0.77606 l 1.0785,-0.55021 -0.47015,-0.71193 c -1.10682,-1.67606 -2.52383,-4.13627 -4.48576,-7.78818 l -2.09588,-3.90123 -0.07,8.06842 -0.07,8.06842 h -4.75868 -4.75867 v -17.0992 -17.0992 l -1.02348,-1.88465 c -2.8477,-5.24381 -6.72278,-12.43498 -10.35426,-19.214869 -2.22142,-4.14734 -4.42428,-8.255 -4.89524,-9.12812 -0.47095,-0.87313 -1.78133,-3.31391 -2.91193,-5.42396 -2.41025,-4.49824 -7.22916,-13.46761 -8.45799,-15.74271 -4.78518,-8.85949 -7.69977,-14.41913 -7.96774,-15.19858 l -0.3235,-0.941 -75.534341,-0.0666 -75.534345,-0.0666 -0.180598,0.72806 c -0.14882,0.59995 -9.002505,17.29783 -15.8880287,29.96452 -0.909698,1.67349 -3.47129,6.43599 -5.6924269,10.58333 -2.22113709,4.14735 -4.4253651,8.255 -4.8982831,9.12813 -0.86837,1.60323 -7.9545633,14.806369 -8.5763383,15.979609 -0.270153,0.50976 -0.03232,0.40303 1.21537,-0.54541 2.1667985,-1.64711 3.1106023,-2.17337 5.3877093,-3.00415 2.684372,-0.97937 7.8533431,-1.22667 11.015325,-0.52702 5.6283297,1.24538 9.8334517,4.51233 12.2644397,9.52821 1.557855,3.21434 1.889874,4.74957 2.045631,9.45886 l 0.137828,4.16718 H 6.1472353 -8.3372405 l 0.16673,0.83365 c 0.307833,1.53917 1.3403318,3.2563 2.8770148,4.7847 1.78817,1.77854 2.967177,2.43373 5.41728001,3.01045 3.51456009,0.82729 7.27618699,0.1075 10.42423969,-1.99469 0.885171,-0.5911 1.704499,-1.01595 1.820729,-0.94411 0.116231,0.0718 1.144701,1.5145 2.285488,3.20592 l 2.074159,3.07532 -1.132795,0.97564 c -1.642702,1.41479 -4.340002,2.79024 -7.0656587,3.60302 -2.030018,0.60534 -2.888585,0.71258 -5.8208329,0.72703 -3.8464821,0.0189 -5.9134911,-0.36965 -8.7094021,-1.63737 -7.7770523,-3.52629 -12.2291573,-11.24715 -11.7155293,-20.31714 0.08698,-1.53603 0.0901,-2.72474 0.0069,-2.64157 -0.08317,0.0832 -1.625101,2.9085 -3.426507,6.2785 l -3.275283,6.12728 v 3.26125 3.26125 l -1.389063,0.84963 -1.389062,0.84963 2.044056,4.12758 c 2.298316,4.641 11.639226,23.87089 13.957443,28.73383 0.832458,1.74625 1.9504385,4.077 2.4844005,5.17945 l 0.970841,2.00444 1.7810035,-0.3755 c 2.448165,-0.51618 7.219075,-0.29098 9.849937,0.46494 6.256327,1.79761 11.516909,6.79747 13.671985,12.99439 1.430878,4.11449 1.429362,9.61533 -0.0037,13.56347 -1.308198,3.60404 -3.947567,7.32954 -6.564849,9.26634 l -0.967252,0.71578 2.916217,6.00688 c 1.603918,3.30379 3.929215,8.09048 5.167325,10.6371 5.345805,10.99555 5.360337,11.03005 5.360337,12.72328 0,1.75832 9.19e-4,1.75886 1.969598,1.16168 z M 150.87578,226.27158 c -5.91674,-1.37046 -10.79347,-5.04049 -13.74128,-10.34113 -2.9611,-5.32454 -3.17422,-12.50309 -0.54295,-18.2885 3.58856,-7.8902 11.03177,-12.36866 19.82678,-11.92944 3.45855,0.17271 5.34825,0.64034 8.21578,2.03308 5.19612,2.52371 9.34408,7.56832 10.88328,13.2359 0.7141,2.62943 0.65792,7.96473 -0.11225,10.66046 -1.98257,6.93931 -6.94383,11.99297 -13.94603,14.20574 -2.38341,0.75319 -8.16235,0.98465 -10.58333,0.42389 z m 9.26042,-9.56904 c 2.13652,-1.03716 4.32408,-3.24508 5.41097,-5.46132 0.72448,-1.47726 0.89475,-2.17246 1.00444,-4.10104 0.29709,-5.22374 -1.90743,-9.24664 -6.24068,-11.38825 -1.94499,-0.96127 -2.07906,-0.98815 -4.92907,-0.98815 -2.76782,0 -3.02578,0.0473 -4.66829,0.8559 -9.34119,4.59866 -8.39637,18.38872 1.48513,21.67608 0.68755,0.22873 1.98528,0.32148 3.70416,0.26475 2.27743,-0.0752 2.86688,-0.19464 4.23334,-0.85797 z M 57.345572,226.1987 c -4.362619,-0.73028 -8.595704,-3.85735 -10.378298,-7.66667 -1.646201,-3.51785 -1.616675,-3.20483 -1.724126,-18.27814 l -0.09855,-13.82448 h 4.77757 4.77757 v 11.88268 c 0,10.9413 0.03992,12.01095 0.503944,13.50185 0.764669,2.45688 2.04656,3.98827 4.258556,5.08741 0.972909,0.48344 1.650247,0.5939 3.704166,0.60411 2.170426,0.0108 2.713836,-0.0815 3.980824,-0.67572 2.705721,-1.26909 4.856601,-3.76092 5.502081,-6.37427 0.208543,-0.84432 0.306679,-4.8871 0.306679,-12.63385 v -11.39221 h 4.7625 4.7625 v 19.57916 19.57917 h -4.0716 -4.071592 l -0.147748,-0.85989 c -0.08126,-0.47295 -0.227293,-1.54451 -0.324515,-2.38125 -0.09722,-0.83675 -0.252346,-1.51706 -0.344719,-1.51181 -0.09237,0.005 -0.822795,0.61096 -1.62316,1.34601 -1.683317,1.54595 -4.931398,3.20716 -7.408333,3.78893 -1.580074,0.37112 -5.536928,0.49795 -7.143749,0.22897 z M 26.653905,197.53203 v -28.0557 l 4.627826,0.0321 4.627826,0.0321 0.06853,28.02361 0.06853,28.02361 -4.696354,-1e-5 -4.696355,-2e-5 z m 67.204164,12.84217 v -15.21354 h -2.77812 -2.77813 v -4.36563 -4.36562 h 2.77813 2.77812 v -4.70438 -4.70437 l 4.29948,-1.0025 c 2.364721,-0.55137 4.507841,-1.0618 4.762501,-1.13428 0.43096,-0.12267 0.46302,0.2721 0.46302,5.70031 v 5.83211 l 4.29948,0.0727 4.29948,0.0727 0.0727,4.29948 0.0727,4.29948 h -4.37218 -4.37218 v 15.21354 15.21354 h -4.762501 -4.7625 z m 23.547921,-4.36563 v -19.57916 h 4.7625 4.7625 v 19.57916 19.57917 h -4.7625 -4.7625 z m 3.12752,-26.55695 c -2.67333,-0.73254 -4.23877,-2.76255 -4.23877,-5.4967 0,-3.64453 3.29879,-6.1945 7.09589,-5.48512 2.32184,0.43376 4.04367,2.09079 4.55292,4.38155 0.92033,4.1399 -3.15186,7.76708 -7.41004,6.60027 z m -77.866381,-29.4157 c -5.237912,-0.99066 -10.105186,-4.17149 -13.074944,-8.54465 -6.225741,-9.16781 -3.866547,-22.31507 5.099262,-28.41705 3.757924,-2.55759 7.541469,-3.69582 12.203083,-3.67115 12.030283,0.0636 20.987412,9.52038 20.442224,21.58243 -0.413181,9.14145 -6.392892,16.38599 -15.543529,18.83131 -2.190021,0.58523 -6.627031,0.69176 -9.126096,0.21911 z m 6.873235,-8.94534 c 3.214672,-0.85871 5.91126,-3.12813 7.346188,-6.18247 0.735374,-1.56529 0.854941,-2.13266 0.944223,-4.48053 0.153317,-4.03179 -0.790691,-6.47352 -3.489583,-9.02602 -3.530758,-3.33925 -8.210093,-4.08881 -12.497913,-2.002 -5.493837,2.67376 -7.908708,9.99887 -5.176047,15.70068 1.261366,2.63189 4.108213,5.04548 7.052298,5.97902 1.40241,0.44469 4.178277,0.45008 5.820834,0.0113 z m 96.193196,9.09884 c -7.49796,-1.18174 -13.784,-6.49864 -16.02159,-13.55151 -3.74709,-11.81076 2.76079,-24.47149 13.77865,-26.80561 2.36561,-0.50115 6.71305,-0.50292 9.08631,-0.004 6.52779,1.37317 11.33107,5.72997 13.34441,12.10405 1.06663,3.37683 1.5325,7.86634 1.06095,10.22409 l -0.16536,0.82682 h -14.38672 c -11.50234,0 -14.38672,0.0678 -14.38672,0.3382 0,0.186 0.412,1.19789 0.91556,2.24864 3.23426,6.74877 11.90148,8.46533 18.59702,3.68317 0.61822,-0.44156 1.15882,-0.75302 1.20133,-0.69215 0.0425,0.0609 0.38299,0.52741 0.75663,1.03673 0.37364,0.50932 1.36517,1.93357 2.20339,3.165 l 1.52403,2.23896 -1.02346,0.88141 c -1.38752,1.19494 -5.90274,3.35012 -8.1437,3.88712 -2.18782,0.52426 -6.34659,0.73307 -8.34073,0.41877 z m 12.06763,-24.77156 c 0.0842,-0.21943 -0.2806,-1.27648 -0.81067,-2.34901 -1.79361,-3.62912 -4.73749,-5.43111 -8.87271,-5.43111 -3.20638,0 -5.93581,1.24865 -7.85854,3.59509 -0.96817,1.18152 -2.28567,4.01527 -2.04665,4.40202 0.073,0.11807 4.47581,0.20732 9.78407,0.19832 8.34721,-0.0141 9.67209,-0.0703 9.8045,-0.41531 z m 27.12869,24.74491 c -2.56098,-0.33262 -5.72147,-1.22621 -8.09168,-2.28784 -2.28417,-1.0231 -5.79966,-3.18587 -5.66815,-3.48712 0.27345,-0.62639 4.28468,-6.37715 4.44815,-6.37715 0.11054,0 1.19668,0.52362 2.41365,1.16359 1.21698,0.63998 3.16518,1.49987 4.32935,1.91088 1.89996,0.67078 2.46882,0.74804 5.55625,0.75464 3.18641,0.007 3.52669,-0.0414 4.62298,-0.65529 0.65087,-0.36444 1.33372,-0.95976 1.51745,-1.32291 0.52043,-1.02866 0.42323,-2.73444 -0.20103,-3.52806 -0.77684,-0.98759 -3.39084,-2.151 -7.16535,-3.18908 -1.79958,-0.49492 -3.8904,-1.13634 -4.64626,-1.42537 -3.82036,-1.46084 -7.00767,-4.03716 -8.25553,-6.67299 -0.59924,-1.26576 -0.68893,-1.79965 -0.68893,-4.10104 0,-2.34372 0.0846,-2.8271 0.74103,-4.23333 1.87608,-4.01908 6.13361,-6.59627 12.02942,-7.28169 3.01904,-0.35099 5.89957,-0.0969 9.29508,0.81988 2.08649,0.56335 7.17052,2.91329 7.71052,3.56395 0.26715,0.32189 -0.0607,0.97157 -1.86458,3.69474 -1.20379,1.81729 -2.22014,3.30416 -2.25854,3.30416 -0.0384,0 -1.06352,-0.47374 -2.27804,-1.05276 -3.16096,-1.50698 -5.16276,-1.98462 -8.29364,-1.9789 -2.21979,0.004 -2.82602,0.0998 -3.76486,0.5948 -2.10636,1.11051 -2.5346,3.40903 -0.88827,4.76769 0.92112,0.76017 3.26611,1.66875 7.29896,2.82804 8.29282,2.38385 11.82826,4.90869 12.95296,9.25037 1.60376,6.191 -1.91337,11.97876 -8.58733,14.13121 -3.14962,1.01579 -6.58778,1.28699 -10.26361,0.80958 z M 76.395572,123.0617 V 96.735661 h 10.218647 c 11.16272,0 14.085221,0.24453 17.827191,1.49165 8.24013,2.746269 14.53217,8.971879 17.16107,16.979929 0.8827,2.68883 1.17625,5.31386 1.01788,9.10208 -0.28542,6.82715 -2.49337,11.96696 -7.19875,16.7577 -3.5243,3.58825 -7.08671,5.7263 -11.83108,7.10067 -3.52913,1.02232 -6.276441,1.21851 -17.074641,1.21931 l -10.120317,7.4e-4 z m 23.722888,16.19334 c 7.65333,-2.18772 12.33577,-8.33969 12.32424,-16.19204 -0.005,-3.21985 -0.31326,-4.61814 -1.64695,-7.46415 -1.37907,-2.94285 -4.27168,-5.8973 -7.15396,-7.30687 -3.3549,-1.64072 -4.668791,-1.86061 -11.238931,-1.88098 l -5.82083,-0.0181 -0.0686,16.40417 c -0.0377,9.02229 -0.006,16.56812 0.0708,16.76852 0.19753,0.5165 11.55244,0.25592 13.534281,-0.3106 z m -202.34987,57.63859 c -0.0396,-30.85767 -0.14142,-56.46203 -0.22631,-56.8986 l -0.15435,-0.79375 -0.43576,0.66146 c -0.23967,0.3638 -1.26836,2.92365 -2.28598,5.68854 -1.01762,2.7649 -2.87939,7.82506 -4.13727,11.24479 -1.25788,3.41974 -2.63253,7.11068 -3.05478,8.20209 -0.42224,1.0914 -4.59716,12.34281 -9.2776,25.00312 -4.68043,12.66032 -9.57559,25.87625 -10.87813,29.36875 -1.30253,3.4925 -2.6454,7.12391 -2.98415,8.06979 -0.33874,0.94589 -2.12199,5.76792 -3.96278,10.71563 -1.84078,4.94771 -3.80849,10.27452 -4.37269,11.83736 l -1.0258,2.84153 11.69098,0.0689 c 6.43004,0.0379 16.07524,0.0748 21.43379,0.0821 l 9.74281,0.0132 z m 396.9675,55.69198 c -0.0674,-0.29202 -2.98633,-4.98412 -6.67249,-10.72599 -0.84079,-1.30969 -5.06994,-7.97719 -9.39809,-14.81667 -4.32816,-6.83948 -8.24945,-13.03073 -8.71397,-13.75833 -0.46452,-0.72761 -2.44347,-3.84718 -4.39767,-6.9324 -1.9542,-3.08521 -4.17936,-6.59755 -4.9448,-7.80521 -0.76544,-1.20765 -1.837,-2.93759 -2.38125,-3.8443 -0.54424,-0.90672 -1.05581,-1.65086 -1.13682,-1.65365 -0.081,-0.003 -0.73584,0.89059 -1.4552,1.98528 -0.86756,1.3202 -1.44156,1.95115 -1.70481,1.87396 -0.21828,-0.064 -1.34938,-0.53802 -2.51354,-1.05335 -2.97332,-1.31618 -5.20598,-1.8538 -7.69992,-1.85413 -3.65467,-4.8e-4 -5.66154,1.1664 -5.66154,3.29189 0,2.06617 1.6725,3.09616 7.9375,4.88821 5.48547,1.56908 7.92727,2.65576 10.10859,4.49867 5.57517,4.71021 4.33319,13.71086 -2.43567,17.65129 -0.65485,0.38121 -2.14313,1.02416 -3.3073,1.42878 -1.99015,0.6917 -2.3776,0.73504 -6.48229,0.72511 -3.86566,-0.009 -4.6641,-0.0907 -6.97195,-0.7099 -1.43348,-0.38463 -3.45755,-1.08451 -4.49792,-1.55528 -2.27229,-1.02821 -5.72832,-3.15764 -5.7237,-3.52664 0.003,-0.239 3.703,-5.75921 4.23478,-6.31806 0.12509,-0.13146 0.78288,0.11285 1.51238,0.56172 1.97255,1.21372 5.98231,2.72503 8.37351,3.15605 3.1182,0.56205 6.17913,0.17707 7.72481,-0.97159 1.56352,-1.16191 1.89581,-3.11415 0.75984,-4.46418 -1.06334,-1.2637 -2.52607,-1.8629 -9.50458,-3.8935 -4.90687,-1.42779 -8.884,-4.14529 -10.37862,-7.09153 -1.93049,-3.80542 -1.08275,-8.65889 2.06164,-11.80327 1.67957,-1.67958 4.9853,-3.32069 7.73673,-3.84087 4.01434,-0.75894 8.8505,-0.40832 12.71709,0.92198 0.81454,0.28025 1.48099,0.43615 1.48099,0.34646 0,-0.16656 -1.93394,-3.27342 -5.56278,-8.93654 -1.11897,-1.74625 -2.73612,-4.28319 -3.59367,-5.63763 -0.85754,-1.35445 -1.73777,-2.74291 -1.95605,-3.08548 -0.21828,-0.34256 -0.7138,-1.13938 -1.10115,-1.7707 -1.19696,-1.95084 -10.74429,-16.97774 -11.30072,-17.78662 l -0.52539,-0.76376 -0.38769,0.89605 c -0.21323,0.49283 -1.72191,3.63449 -3.35262,6.98147 -1.63072,3.34698 -3.5963,7.3951 -4.36796,8.99583 -0.77167,1.60073 -2.4993,5.17261 -3.83918,7.9375 -4.06819,8.39489 -5.81695,12.05352 -5.81695,12.16981 0,0.0609 0.79201,0.50281 1.76002,0.98195 3.4316,1.69855 6.06631,5.08306 7.26915,9.33783 0.57883,2.04747 0.60161,2.5556 0.69679,15.54427 l 0.0984,13.4276 h -4.77989 -4.77988 l -0.002,-11.04635 c -0.001,-6.27738 -0.11964,-11.78883 -0.27449,-12.76615 -0.14987,-0.94588 -0.59175,-2.3579 -0.98196,-3.13781 -0.70408,-1.40727 -2.47976,-3.21219 -3.16013,-3.21219 -0.31548,0 -2.2612,3.80922 -6.82492,13.36146 -0.76478,1.60073 -2.67075,5.52979 -4.23549,8.73125 -2.08279,4.26136 -2.85193,6.10437 -2.87086,6.87917 -0.0201,0.82106 -0.14425,1.09026 -0.55388,1.20076 -0.29041,0.0783 -0.73843,0.55459 -0.99561,1.05834 -0.93413,1.82971 -11.14163,22.92061 -11.87163,24.52936 l -0.75011,1.65305 57.3371,0.0667 c 31.53541,0.0367 57.5157,0.0509 57.73398,0.0316 0.21828,-0.0193 0.36401,-0.17744 0.32385,-0.35136 z m 48.82601,0.13826 c 0.0673,-0.0652 -4.05489,-11.49934 -4.82292,-13.3778 -0.20824,-0.50932 -0.87071,-2.29526 -1.47216,-3.96875 -0.60145,-1.67348 -1.37001,-3.75708 -1.70791,-4.6302 -0.3379,-0.87313 -1.046,-2.77813 -1.57356,-4.23334 -0.52756,-1.45521 -1.0634,-2.88396 -1.19076,-3.175 -0.2061,-0.471 -4.37288,-11.71486 -6.81447,-18.38854 -0.50578,-1.38245 -1.52393,-4.12088 -2.26256,-6.08542 -0.73863,-1.96453 -1.92944,-5.17921 -2.64623,-7.14375 -1.27182,-3.48571 -2.13093,-5.82506 -4.51823,-12.30312 -0.64353,-1.74625 -1.64804,-4.42516 -2.23224,-5.95313 -0.58421,-1.52796 -1.49922,-3.96875 -2.03337,-5.42395 -1.10343,-3.00612 -2.075,-5.63607 -4.25189,-11.50938 -1.99388,-5.37956 -3.93608,-10.6636 -5.02022,-13.65824 -0.78213,-2.1604 -1.67329,-3.94826 -1.86738,-3.74637 -0.16018,0.16661 -0.44814,113.39828 -0.28904,113.65571 0.11947,0.19331 6.6778,0.23735 21.40277,0.14371 11.67679,-0.0743 21.26186,-0.16535 21.30017,-0.20243 z m -324.316528,0.003 c 0,-0.11363 -5.231713,-11.00064 -10.4183957,-21.68031 -2.607919,-5.36985 -2.852681,-5.77339 -3.40563,-5.6149 -0.327672,0.0939 -1.310142,0.37575 -2.1832669,0.62629 -2.52055809,0.72326 -8.6409001,0.62469 -11.2447909,-0.18111 -3.6177705,-1.11956 -6.5975275,-2.93296 -9.0097965,-5.48313 -3.871644,-4.09296 -5.656468,-8.61935 -5.620247,-14.25315 0.02383,-3.70582 0.542888,-5.86075 2.255292,-9.36303 1.103746,-2.25744 1.706211,-3.11525 3.372293,-4.80161 1.115659,-1.12923 2.696932,-2.48076 3.513941,-3.0034 l 1.485471,-0.95024 -1.204718,-2.45024 c -1.468268,-2.98626 -4.936424,-10.1402 -6.831607,-14.0919 -0.767688,-1.60073 -2.874809,-5.94651 -4.682491,-9.65729 -1.807681,-3.71078 -3.867466,-7.96968 -4.5773,-9.46421 -0.709834,-1.49453 -1.405206,-2.67913 -1.54527,-2.63244 -0.244289,0.0814 -1.366833,1.7899 -6.122685,9.31852 -1.195037,1.89177 -3.564024,5.63999 -5.264414,8.32937 l -3.091619,4.88978 2.085755,0.29801 c 3.011893,0.43034 5.654858,1.29381 8.467465,2.76636 2.337949,1.22405 5.600142,3.57596 5.602276,4.03902 8.53e-4,0.185 -3.237511,4.20881 -4.138425,5.14218 -0.174818,0.18112 -0.562172,0.63991 -0.860788,1.01954 l -0.542937,0.69023 -1.263327,-0.92121 c -1.721428,-1.25526 -4.066916,-2.40109 -6.432026,-3.14222 -1.566277,-0.49081 -2.550035,-0.61581 -4.753176,-0.60395 -3.909647,0.021 -4.240017,0.20519 -6.287424,3.50477 -2.048147,3.30076 -2.038946,3.27607 -1.562067,4.19289 0.94133,1.80975 2.590716,2.68655 9.089493,4.83191 10.588106,3.49531 14.488851,5.96556 16.70197,10.57697 0.859013,1.7899 0.949631,2.20573 1.058962,4.85928 0.143462,3.48193 -0.174669,5.16134 -1.490376,7.8677 -1.874323,3.8554 -5.812343,6.85833 -10.763881,8.20797 -3.007715,0.81981 -8.181441,1.00071 -11.66539,0.40788 -4.272769,-0.72705 -7.440581,-1.96161 -11.022914,-4.29584 -1.683485,-1.09695 -5.226742,-4.18247 -5.223595,-4.54879 7.95e-4,-0.0925 1.424953,-1.64369 3.164797,-3.44719 l 3.163352,-3.27909 1.555858,1.42701 c 3.87187,3.55122 9.157203,5.4956 14.002745,5.15137 3.953914,-0.28089 6.411492,-1.54529 7.58647,-3.90317 1.231777,-2.47185 0.698873,-4.86262 -1.482267,-6.6499 -1.543395,-1.2647 -3.275874,-2.00907 -8.060357,-3.46321 -6.440728,-1.95751 -9.104738,-3.07581 -11.519533,-4.83567 l -1.244782,-0.90717 -0.711033,1.13821 c -0.391069,0.62602 -1.807762,2.86462 -3.148208,4.97467 -4.739746,7.46104 -13.050205,20.57154 -16.268209,25.66458 -1.792953,2.83766 -4.773161,7.54063 -6.622683,10.45105 -1.849523,2.91041 -4.504759,7.10737 -5.900525,9.32656 l -2.537756,4.03489 h 57.798885 c 31.7893863,0 57.798885,-0.0507 57.798885,-0.11264 z M -89.960003,236.39026 c 4.401348,-6.95254 8.300106,-13.12191 8.663908,-13.7097 0.363803,-0.58779 2.040722,-3.23999 3.726489,-5.89379 1.685766,-2.65379 5.539579,-8.73508 8.564028,-13.51399 l 5.498998,-8.68892 -0.68298,-1.36525 c -0.929885,-1.8588 -1.217441,-3.3103 -1.225067,-6.18381 -0.01402,-5.2821 2.481922,-9.65722 7.004991,-12.27901 1.743301,-1.0105 4.965943,-2.02305 7.151353,-2.24695 1.647559,-0.1688 1.793899,-0.2388 2.369487,-1.13332 3.281948,-5.10048 13.369672,-21.54275 13.275047,-21.63738 -0.06728,-0.0673 -1.102682,0.021 -2.300892,0.19622 -3.41791,0.49977 -8.84133,0.19286 -11.737389,-0.6642 -6.097613,-1.80454 -11.151136,-5.33618 -14.691797,-10.26731 -0.496314,-0.69123 -1.04748,-1.25678 -1.224813,-1.25678 -0.177334,0 -1.31801,-0.28458 -2.534836,-0.6324 -1.216825,-0.34783 -4.176941,-1.17663 -6.578035,-1.8418 -2.401094,-0.66516 -7.806269,-2.16266 -12.0115,-3.32779 -4.205231,-1.16512 -7.732789,-2.06468 -7.839018,-1.99903 -0.10623,0.0657 -1.024068,1.1036 -2.039641,2.30655 l -1.846499,2.18718 -0.16081,57.81146 c -0.14153,50.87927 -0.11421,57.74968 0.22786,57.29623 0.21376,-0.28337 3.989769,-6.20367 8.391116,-13.15621 z M 297.22289,192.18758 c -0.15687,-48.67859 -0.24387,-57.82544 -0.55432,-58.27448 -0.20254,-0.29296 -1.12049,-1.33917 -2.0399,-2.32491 l -1.67164,-1.79226 -3.30729,0.94274 c -1.81901,0.51851 -6.58151,1.84175 -10.58333,2.94055 -9.17092,2.5181 -19.34579,5.35528 -19.77383,5.51378 -0.20789,0.077 0.40096,1.16045 1.67183,2.97509 l 1.9988,2.85403 -1.01038,0.85959 c -1.47682,1.25641 -5.2323,3.12845 -7.64301,3.80991 -1.67755,0.47421 -2.78875,0.59448 -5.53821,0.59944 -4.74028,0.009 -7.97226,-0.89732 -11.39596,-3.19411 l -1.8332,-1.2298 -1.43835,0.30146 c -0.79109,0.1658 -1.5264,0.39238 -1.63402,0.50352 -0.10763,0.11114 1.27592,2.52379 3.07454,5.36144 1.79862,2.83766 3.8287,6.05235 4.5113,7.14375 0.6826,1.09141 3.51819,5.59302 6.30131,10.00357 2.78312,4.41056 5.71506,9.06669 6.51543,10.34696 3.17069,5.07187 5.95374,9.4984 7.00074,11.13489 0.60516,0.94589 2.03328,3.20807 3.1736,5.02708 1.14032,1.81902 3.43101,5.45042 5.09042,8.0698 1.65941,2.61937 3.16017,4.99783 3.33502,5.28546 0.17486,0.28763 0.92271,1.47825 1.6619,2.64583 0.73918,1.16758 2.56955,4.0874 4.06747,6.4885 1.49793,2.40109 3.18781,5.08 3.75529,5.95312 1.07757,1.65795 4.90176,7.72841 7.58387,12.03854 0.86028,1.38245 2.58515,4.12089 3.83307,6.08542 1.24791,1.96453 2.83602,4.49461 3.52912,5.6224 0.69311,1.12778 1.31546,2.05052 1.383,2.05052 0.0675,0 0.0391,-25.98382 -0.0633,-57.74183 z M 1.0335303,217.3778 2.0037804,217.10832 0.40824131,213.74126 c -0.877547,-1.85188 -2.83705801,-5.91611 -4.35447001,-9.03162 -1.517411,-3.1155 -3.006865,-6.24089 -3.3098968,-6.94531 -0.303032,-0.70441 -0.722629,-1.28076 -0.932438,-1.28076 -0.665731,0 -2.9306355,2.58602 -3.7666905,4.30073 -2.137247,4.38338 -1.570564,9.33954 1.496197,13.08561 1.1411055,1.39386 3.2527003,2.81201 4.9727193,3.33967 1.52428,0.46761 5.10895601,0.5601 6.519868,0.16822 z m 5.893583,-4.0966 c 2.658136,-3.48499 2.993176,-9.25816 0.758574,-13.07122 -1.056085,-1.80208 -3.151797,-3.7042 -5.0897059,-4.61957 -1.4058301,-0.66404 -2.15710109,-0.83976 -3.9217641,-0.9173 -1.200547,-0.0528 -2.182813,-0.009 -2.182813,0.0975 0,0.10638 1.506644,3.30352 3.34809701,7.10476 1.84145399,3.80123 3.92274499,8.13172 4.62509099,9.62331 0.702347,1.49159 1.384228,2.71198 1.515292,2.71198 0.131064,0 0.557317,-0.41826 0.947229,-0.92946 z m 191.1352467,-9.822 c 2.36027,-4.89466 4.23187,-8.95891 4.15911,-9.03167 -0.0728,-0.0728 -0.95082,0.1309 -1.95126,0.45258 -2.5022,0.80457 -4.43679,2.3685 -5.6122,4.53694 l -0.91973,1.69673 -0.13229,5.62283 c -0.0728,3.09256 -0.0654,5.62263 0.0163,5.6224 0.0817,-2.4e-4 2.07976,-4.00515 4.44003,-8.89981 z m 33.57463,-61.45293 c 0.24006,-0.12959 0.1473,-0.44275 -0.34629,-1.16913 -1.84741,-2.7187 -3.02724,-7.04918 -3.0197,-11.08356 0.0102,-5.46241 1.82914,-10.06766 5.54881,-14.04868 3.96108,-4.23939 8.72966,-6.28422 14.68722,-6.29806 4.7472,-0.011 8.48365,1.06345 12.04356,3.46332 1.74103,1.17369 2.10253,1.51538 2.10483,1.98946 0.002,0.31686 -4.16545,6.31823 -4.45979,6.42307 -0.11284,0.0402 -1.00717,-0.46474 -1.98741,-1.12206 -2.70922,-1.81673 -6.05823,-2.5636 -9.03513,-2.01495 -6.05866,1.11662 -10.28313,7.15064 -9.39531,13.41979 0.31786,2.2445 1.72066,5.1519 3.16322,6.556 l 1.06525,1.03686 10.26185,-2.84324 c 5.64402,-1.56379 16.2745,-4.50339 23.62331,-6.53246 7.3488,-2.02907 13.46861,-3.72246 13.59959,-3.7631 0.13097,-0.0406 -0.52387,-0.95144 -1.45521,-2.02401 -0.93134,-1.07258 -2.61696,-3.02488 -3.74583,-4.33845 -2.01955,-2.34998 -2.21488,-2.49384 -12.17083,-8.96365 -5.56509,-3.61643 -11.5471,-7.50747 -13.29335,-8.64674 -1.74625,-1.13927 -4.42515,-2.877719 -5.95312,-3.863229 -1.52797,-0.9855 -3.90922,-2.53099 -5.29167,-3.43442 -1.38245,-0.90342 -4.14805,-2.70125 -6.14578,-3.99517 -8.71364,-5.64378 -15.42652,-10.01061 -20.59739,-13.39893 -3.05357,-2.00091 -5.6575,-3.63802 -5.78651,-3.63802 -0.129,0 -0.27424,-0.0932 -0.32275,-0.20708 -0.0725,-0.17016 -4.23009,-2.90592 -9.73769,-6.40751 -1.21827,-0.77454 -8.69292,-5.6413 -20.23775,-13.17685 -2.03142,-1.32595 -3.74204,-2.36227 -3.80138,-2.30293 -0.0593,0.0593 0.40189,1.03649 1.02495,2.17144 1.36539,2.48718 9.30313,17.21636 12.16259,22.56876 2.15082,4.02596 2.80673,5.24822 10.53006,19.62229 2.6321,4.898669 5.28311,9.839759 5.89114,10.980209 1.9427,3.64384 1.2674,3.26417 5.80578,3.26417 h 3.96265 v 7.47637 7.47637 l 1.8013,3.3054 c 0.99072,1.81797 3.0904,5.72234 4.66597,8.67638 l 2.86466,5.37098 0.82414,-0.17582 c 0.45327,-0.0967 0.97168,-0.25548 1.15201,-0.35282 z m -18.58413,-39.15764 c -4.31868,-1.99949 -4.38089,-8.016969 -0.10573,-10.227749 1.10182,-0.56977 3.07648,-0.76009 4.33907,-0.4182 2.21852,0.60075 4.36502,3.35519 4.35723,5.59131 -0.003,1.00212 -0.80608,2.995669 -1.52751,3.794149 -1.48383,1.64233 -4.91553,2.25476 -7.06306,1.26049 z m 40.61355,38.07244 c 0.48365,-0.31255 0.0659,-0.31255 -0.66146,0 -0.34892,0.14994 -0.39398,0.23235 -0.13229,0.24194 0.21828,0.008 0.57547,-0.10087 0.79375,-0.24194 z m -289.454171,-1.15203 1.719791,-0.58882 0.07054,-6.93478 0.07054,-6.93478 h 4.758107 4.758107 v 2.11666 c 0,1.16417 0.0893,2.11543 0.198437,2.11392 0.109141,-0.002 1.285331,-2.05535 2.613755,-4.56407 1.328425,-2.50871 3.957463,-7.4188 5.842306,-10.9113 1.884844,-3.4925 3.968353,-7.36203 4.63002,-8.59896 0.661667,-1.23693 2.9595155,-5.523179 5.1063303,-9.524999 2.146814,-4.00183 4.379884,-8.16901 4.962376,-9.26042 0.58249201,-1.09141 1.68040901,-3.11547 2.439815,-4.49792 0.7594071,-1.38244 3.861159,-7.15697 6.892783,-12.83229 3.0316237,-5.67531 6.4311187,-11.98562 7.5544317,-14.02291 1.123314,-2.0373 1.993566,-3.75448 1.933895,-3.81596 -0.05967,-0.0615 -0.911469,0.43061 -1.892884,1.09354 -1.868526,1.26217 -5.106924,3.37238 -11.9708487,7.80046 -2.255573,1.45512 -8.208698,5.3231 -13.2291668,8.5955 -11.7530985,7.6608 -14.3579105,9.35506 -23.1510415,15.05822 -1.309687,0.84945 -5.298281,3.44209 -8.863541,5.76143 -3.565261,2.31933 -8.110167,5.26961 -10.099793,6.55619 -1.989626,1.28657 -3.585995,2.37073 -3.547486,2.40924 0.03851,0.0385 0.843932,-0.2809 1.78983,-0.70979 3.536559,-1.60355 5.674231,-1.99445 10.931407,-1.99894 5.12906,-0.004 6.553634,0.24914 10.709927,1.90593 1.829443,0.72925 6.046065,3.218949 6.617181,3.907109 0.28947,0.34879 -0.06604,0.94375 -2.393099,4.00491 -1.503192,1.9774 -2.889891,3.65545 -3.081555,3.72899 -0.191664,0.0735 -0.734217,-0.16043 -1.205675,-0.51997 -1.130469,-0.86209 -3.617417,-2.09464 -5.751987,-2.85072 -1.403601,-0.49716 -2.279206,-0.61108 -4.7625,-0.61958 -2.657427,-0.009 -3.310731,0.0825 -5.159375,0.72382 -1.164167,0.40384 -2.711979,1.09816 -3.439584,1.54295 -3.8033,2.32497 -6.805017,6.38245 -7.91606,10.70027 -0.529176,2.05654 -0.541382,6.55047 -0.02375,8.74569 0.540676,2.29296 2.087574,5.3345 3.718989,7.31234 1.261544,1.52942 1.530856,1.71743 3.066498,2.14073 7.794946,2.14868 11.306375,3.13201 11.869951,3.32403 1.100595,0.37499 2.423862,0.2638 4.233334,-0.35572 z m -32.551965,-9.12754 c -0.631297,-2.02836 -1.050119,-5.118 -1.050119,-7.7467 0,-8.21537 3.765991,-16.07899 10.188409,-21.27401 0.896685,-0.72532 -0.129004,-0.11285 -3.706117,2.21303 -1.891771,1.23006 -4.392083,2.85484 -5.55625,3.61063 -16.043045,10.41533 -14.729332,9.46555 -17.526461,12.67111 -1.413922,1.62038 -2.793763,3.18426 -3.066312,3.47531 -0.851108,0.90885 -1.843003,2.25887 -1.735269,2.36179 0.05667,0.0541 2.543823,0.77208 5.527,1.59542 2.983178,0.82334 6.197865,1.71276 7.14375,1.97648 0.945886,0.26373 2.910417,0.80712 4.365625,1.20754 1.455209,0.40042 3.122084,0.88281 3.704167,1.07199 0.582083,0.18918 1.313739,0.35336 1.625902,0.36485 l 0.567568,0.0209 z m 79.647588,-5.39699 c -3.55e-4,-1.0148 -1.4900057,-3.80532 -2.6513057,-4.96662 -0.608656,-0.60865 -1.779107,-1.42192 -2.601003,-1.80725 -1.334813,-0.62581 -1.805085,-0.7002 -4.404774,-0.69683 -3.329959,0.004 -4.450259,0.39534 -6.630157,2.31417 -1.970774,1.73474 -3.7422308,5.03796 -2.9659898,5.53065 0.184652,0.1172 4.5922148,0.21492 9.7945849,0.21714 l 9.4588536,0.004 z m -80.433123,-22.55776 c 1.091406,-0.70111 3.65125,-2.36492 5.688541,-3.697349 2.037292,-1.33242 9.300105,-6.05633 16.139584,-10.49756 6.839479,-4.44124 18.448073,-11.98279 25.796875,-16.75901 7.348802,-4.77622 14.3734883,-9.33989 15.6104153,-10.14149 1.236928,-0.8016 3.975365,-2.58514 6.08541701,-3.96342 2.11005209,-1.37829 6.15817699,-3.9999 8.99583299,-5.82581 2.8376567,-1.82591 5.4433237,-3.53564 5.7903697,-3.7994 0.611048,-0.46439 0.02141,-0.47947 -18.6531257,-0.47704 l -19.2841183,0.002 -4.413499,5.09072 c -2.427424,2.79989 -4.631951,5.32884 -4.89895,5.61988 -0.266998,0.29104 -0.76121,0.88636 -1.098249,1.32292 -0.33704,0.43656 -1.055411,1.27 -1.596381,1.85208 -0.94309,1.01477 -8.924712,10.19875 -16.41994,18.89346 -1.955902,2.26891 -5.289652,6.09685 -7.408333,8.50653 -2.118681,2.40968 -4.825519,5.5053 -6.015196,6.87916 -1.189677,1.37387 -2.475627,2.85512 -2.857666,3.29169 -0.38204,0.43656 -1.551793,1.805779 -2.599452,3.042699 -1.047658,1.23693 -1.99413,2.28865 -2.103271,2.33716 -0.109141,0.0485 -0.198438,0.20544 -0.198438,0.34874 0,0.14331 0.327422,0.0328 0.727605,-0.24558 0.400182,-0.27837 1.620573,-1.07977 2.711979,-1.78089 z m 339.155871,0.60192 c -0.77839,-0.90699 -1.66899,-1.94879 -1.97912,-2.3151 -0.31013,-0.36632 -2.33419,-2.693809 -4.49792,-5.172199 -2.16372,-2.47839 -5.36279,-6.15635 -7.10904,-8.17324 -1.74625,-2.01689 -4.14039,-4.75162 -5.32031,-6.07717 -1.17993,-1.32555 -2.90633,-3.31494 -3.83646,-4.42087 -2.0772,-2.4698 -4.67577,-5.47705 -6.29524,-7.28529 -0.66921,-0.74721 -1.81205,-2.05076 -2.53966,-2.89677 -1.21617,-1.41408 -3.60225,-4.15368 -7.12452,-8.18008 -0.76381,-0.87313 -2.92807,-3.37344 -4.80948,-5.55625 -1.8814,-2.18281 -3.76584,-4.3557 -4.18762,-4.82865 l -0.76689,-0.85989 h -19.30458 -19.30459 l 6.37826,4.16719 c 3.50804,2.29195 8.40555,5.47687 10.88335,7.0776 2.4778,1.60073 6.8687,4.45823 9.75757,6.35 2.88886,1.89177 5.89443,3.85143 6.67903,4.3548 0.78461,0.50336 2.91484,1.88181 4.73385,3.06322 1.81901,1.1814 4.14073,2.68777 5.15937,3.34747 1.01865,0.6597 3.63803,2.36579 5.82084,3.79131 2.18281,1.42552 6.82625,4.43632 10.31875,6.69066 3.4925,2.25434 8.99721,5.8373 12.2327,7.96213 3.23548,2.12483 6.92642,4.53395 8.20208,5.3536 1.27566,0.819649 3.62805,2.337689 5.22754,3.373429 1.59948,1.03575 2.95072,1.88317 3.00274,1.88317 0.052,0 -0.54227,-0.74208 -1.32065,-1.64907 z M 28.533412,40.281511 c 11.19355,-5.439776 15.143107,-7.353825 18.49341,-8.962347 1.819011,-0.873329 5.390886,-2.596575 7.9375,-3.829434 2.546615,-1.23286 7.368646,-3.556034 10.715625,-5.162611 3.346979,-1.606576 6.144948,-2.979338 6.217708,-3.050581 0.170553,-0.166997 0.04441,-0.131454 -6.217708,1.751919 -5.891478,1.771901 -25.70304,7.685648 -48.551042,14.492477 -2.692135,0.802035 -6.68073,1.998697 -8.8635417,2.659247 -2.182813,0.66055 -6.3048429,1.89218 -9.16006699,2.73695 -8.79676181,2.60267 -9.65318031,2.34567 7.86457299,2.36006 l 15.3732567,0.0126 z m 134.116328,1.33393 c -4.22897,-2.09539 -20.26711,-9.859721 -26.32604,-12.744879 -1.30969,-0.62365 -4.7625,-2.293018 -7.67292,-3.709705 -4.93493,-2.402148 -6.96363,-3.382827 -16.27187,-7.865847 -1.96453,-0.946155 -5.70609,-2.757887 -8.31457,-4.026072 l -4.742701,-2.305791 -1.07814,0.534519 c -2.57929,1.278763 -14.71892,7.142007 -21.715635,10.488301 -1.600729,0.765576 -8.565886,4.12994 -15.478125,7.476364 -6.91224,3.346425 -13.996459,6.771777 -15.742709,7.611892 -1.74625,0.840118 -3.234531,1.600048 -3.307291,1.688728 -0.07276,0.0887 -0.251354,0.18219 -0.396875,0.20778 -0.145521,0.0256 -2.229115,0.99999 -4.630209,2.16532 l -4.365625,2.11878 66.674999,-3.4e-4 66.675001,-3.4e-4 z m 42.06875,0.88441 c -1.23693,-0.41375 -4.15396,-1.31193 -6.48229,-1.99595 -6.06307,-1.7812 -17.03205,-5.042373 -19.97604,-5.939047 -1.38245,-0.421063 -4.59714,-1.382358 -7.14375,-2.136212 -2.54662,-0.753853 -5.52318,-1.64317 -6.61459,-1.976259 -1.0914,-0.333089 -3.41312,-1.030254 -5.15937,-1.549254 -1.74625,-0.519001 -5.19906,-1.5474 -7.67292,-2.285331 -2.47385,-0.737931 -6.28385,-1.872805 -8.46667,-2.521942 -2.18281,-0.649136 -4.56406,-1.361372 -5.29166,-1.582745 -7.93179,-2.413247 -10.84815,-3.25604 -10.94207,-3.162123 -0.0613,0.06134 0.17287,0.223117 0.52048,0.3595 0.68537,0.268906 5.77903,2.712634 14.12575,6.776951 2.91042,1.417186 6.4823,3.143968 7.9375,3.837293 1.45521,0.693325 4.6699,2.241225 7.14375,3.439777 2.47386,1.198553 6.04573,2.927302 7.9375,3.841666 1.89178,0.914366 5.28506,2.561476 7.54063,3.660246 l 4.10104,1.99776 15.34583,-0.006 15.34584,-0.006 z"
       id="path1"
       inkscape:export-filename="Logo black.svg"
       inkscape:export-xdpi="96"
       inkscape:export-ydpi="96" /></g></svg>
