<?xml version="1.0" encoding="UTF-8" standalone="no"?>
<!-- Created with Inkscape (http://www.inkscape.org/) -->

<svg
   width="323.12939mm"
   height="216.18481mm"
   viewBox="0 0 323.12939 216.18481"
   version="1.1"
   id="svg1"
   xml:space="preserve"
   xmlns:inkscape="http://www.inkscape.org/namespaces/inkscape"
   xmlns:sodipodi="http://sodipodi.sourceforge.net/DTD/sodipodi-0.dtd"
   xmlns="http://www.w3.org/2000/svg"
   xmlns:svg="http://www.w3.org/2000/svg"><sodipodi:namedview
     id="namedview1"
     pagecolor="#ffffff"
     bordercolor="#000000"
     borderopacity="0.25"
     inkscape:showpageshadow="2"
     inkscape:pageopacity="0.0"
     inkscape:pagecheckerboard="0"
     inkscape:deskcolor="#d1d1d1"
     inkscape:document-units="mm" /><defs
     id="defs1" /><g
     inkscape:label="Layer 1"
     inkscape:groupmode="layer"
     id="layer1"
     transform="translate(70.843286,-22.906083)"><path
       style="fill:#ffffff"
       d="m 147.65853,112.5465 c -0.0102,-0.61805 -0.0376,-5.21949 -0.0609,-10.2254 -0.0379,-8.136072 -0.0808,-9.173562 -0.40485,-9.779102 -0.27672,-0.51714 -0.36247,-1.20771 -0.36247,-2.918978 0,-1.99281 -0.0529,-2.31301 -0.47625,-2.88514 -0.45206,-0.61087 -0.4797,-0.86752 -0.54428,-5.0527 -0.0829,-5.37209 0.0118,-5.70944 1.60805,-5.72862 4.36155,-0.0524 4.48344,-0.094 4.48924,-1.53308 0.006,-1.52705 0.66151,-2.23049 2.11991,-2.27543 l 0.52917,-0.0163 -0.47933,-0.19257 c -0.26363,-0.10591 -0.57084,-0.43325 -0.68268,-0.72741 -0.11912,-0.31332 -0.37013,-0.53485 -0.606,-0.53485 -0.22146,0 -0.52966,-0.15303 -0.68488,-0.34006 -0.2391,-0.28809 -0.21071,-0.46434 0.18574,-1.15319 0.25739,-0.44721 0.46798,-1.14696 0.46798,-1.55498 0,-0.94766 0.32398,-1.67232 1.31906,-2.95036 0.59548,-0.76482 0.79761,-1.22375 0.79761,-1.81096 0,-1.24353 1.26248,-2.77378 2.28841,-2.77378 0.61464,0 2.34956,-1.05221 2.36052,-1.43163 0.008,-0.28601 0.37992,-1.01232 0.78377,-1.53171 0.13579,-0.17462 0.27866,-0.60111 0.3175,-0.94775 0.0632,-0.56361 0.16888,-0.6469 0.99986,-0.78777 0.87709,-0.14868 1.7166,-0.65929 1.7166,-1.04407 0,-0.0957 -0.23516,-0.32806 -0.52257,-0.51638 -0.48311,-0.31655 -0.59479,-0.31483 -1.47866,0.0227 -0.52585,0.20083 -1.06003,0.49037 -1.18705,0.64343 -0.12703,0.15306 -0.69988,0.43404 -1.27301,0.6244 -0.95594,0.31752 -1.04211,0.40154 -1.04289,1.01702 -4.7e-4,0.369 -0.17147,1.14715 -0.38,1.72924 l -0.37915,1.05833 -1.31557,0.0567 c -2.43476,0.10491 -2.8001,0.25515 -3.2177,1.32325 -0.43429,1.11075 -0.81506,1.20528 -1.18666,0.29459 -0.27545,-0.67507 -0.22313,-0.82084 0.80502,-2.24283 0.20499,-0.28352 0.19655,-0.4712 -0.0412,-0.9154 -0.28477,-0.53209 -0.26255,-0.59083 0.46559,-1.23086 0.42054,-0.36966 0.82428,-0.93812 0.8972,-1.26325 0.0729,-0.32513 0.29643,-0.65235 0.49669,-0.72716 0.43393,-0.16208 2.49195,-2.12908 2.36052,-2.25611 -0.0503,-0.0486 -0.28191,-0.10864 -0.51475,-0.13343 -0.99318,-0.10574 -1.59145,0.0341 -2.15334,0.50333 -0.32908,0.27481 -0.9317,0.56021 -1.33916,0.63422 -2.4385,0.44295 -2.21285,0.48607 -2.93297,-0.56058 l -0.65837,-0.95691 0.34556,-1.44861 c 0.3357,-1.40727 1.27225,-2.82444 1.86655,-2.82444 0.12708,0 0.56083,-0.28188 0.9639,-0.6264 0.40306,-0.34452 0.94152,-0.63027 1.19659,-0.635 0.56411,-0.0105 0.81503,-0.35628 0.5181,-0.71406 -0.15208,-0.18325 -0.13858,-0.42232 0.0443,-0.78447 0.24315,-0.48147 0.38252,-0.52179 1.84095,-0.53263 2.08774,-0.0155 2.00198,0.0131 2.50234,-0.83494 0.24041,-0.40746 0.54192,-0.74083 0.67003,-0.74083 0.12811,0 0.53613,-0.22921 0.90672,-0.50934 0.75429,-0.57018 3.18822,-1.60733 3.77201,-1.60733 0.20866,0 0.47624,0.18097 0.59462,0.40216 0.18715,0.3497 0.44356,0.39802 1.96537,0.37042 l 1.75013,-0.0318 -0.0722,-1.19933 c -0.0809,-1.34431 0.0396,-1.48174 1.53713,-1.75253 0.48989,-0.0886 1.05364,-0.38802 1.37583,-0.73079 0.30023,-0.31939 0.71615,-0.675 0.92428,-0.79024 0.28027,-0.15521 0.3345,-0.32822 0.20911,-0.66718 -0.0931,-0.2517 -0.12052,-1.11134 -0.0609,-1.91032 0.10878,-1.45799 0.55055,-2.4025 1.7773,-3.7999 0.43428,-0.49469 1.66757,-0.95195 2.77609,-1.02927 0.34925,-0.0244 1.06362,-0.10824 1.5875,-0.18639 0.73362,-0.10945 1.19216,-0.0386 1.99546,0.30841 1.27054,0.54883 2.00338,0.43119 2.63486,-0.42293 0.44473,-0.60152 1.14776,-0.82535 1.38528,-0.44103 0.0627,0.10138 0.41036,0.24361 0.77267,0.31607 0.36231,0.0725 1.15011,0.3812 1.75065,0.68607 1.01503,0.51529 1.22878,0.54566 3.03573,0.43136 2.39295,-0.15138 3.83911,-0.48797 4.44343,-1.0342 0.25332,-0.22898 0.5581,-0.35604 0.67729,-0.28238 0.1192,0.0737 0.31675,-0.053 0.43901,-0.28141 0.30934,-0.57802 0.28394,-0.65484 -0.21657,-0.65484 -0.30361,0 -0.41721,-0.11416 -0.36861,-0.37042 0.0559,-0.29477 0.39406,-0.40442 1.65594,-0.53697 3.41162,-0.35834 5.19497,-0.93933 6.27283,-2.04362 0.70216,-0.71936 1.70791,-1.05715 3.17281,-1.06561 0.76001,-0.004 0.97893,0.11004 1.6664,0.87099 l 0.79145,0.87603 1.62155,-0.12504 c 0.89185,-0.0688 2.00335,-0.2963 2.46999,-0.50562 0.76461,-0.34297 1.17506,-0.36184 4.15368,-0.19104 2.84578,0.16318 3.45325,0.14112 4.37005,-0.15875 0.58564,-0.19156 1.53083,-0.34828 2.10041,-0.34828 0.69331,0 1.37979,-0.17729 2.0769,-0.53638 0.89915,-0.46316 1.21464,-0.51867 2.31129,-0.40663 2.26357,0.23125 2.50478,0.31618 3.48171,1.22593 0.52981,0.49338 1.58241,1.20838 2.33912,1.58889 0.75671,0.3805 1.63094,0.84986 1.94272,1.043 0.49434,0.30622 0.72625,0.31825 1.81191,0.094 1.89808,-0.39204 3.15254,-0.33499 3.6537,0.16618 0.23284,0.23283 0.42334,0.50917 0.42334,0.61409 0,0.41055 1.52415,1.07924 2.45994,1.07924 2.21401,0 4.65186,1.962 4.97537,4.00421 0.26422,1.66789 0.63231,2.8071 1.58805,4.91492 0.50873,1.12199 0.92497,2.22297 0.92497,2.44662 0,0.22366 -0.32445,0.94545 -0.72099,1.60398 -0.39655,0.65854 -0.78607,1.60543 -0.8656,2.10422 -0.0795,0.49879 -0.37421,1.26203 -0.65484,1.69609 -0.28063,0.43407 -0.51023,0.89908 -0.51023,1.03335 0,0.42063 -0.89865,1.73873 -1.81796,2.66651 -0.50166,0.50629 -1.35197,1.06909 -1.97013,1.30397 -0.59814,0.22727 -1.25258,0.61006 -1.45431,0.85063 -0.32489,0.38745 -0.62287,0.44078 -2.60979,0.46707 -1.41541,0.0187 -2.42106,-0.0656 -2.72555,-0.22857 -0.32319,-0.17297 -0.91592,-0.21183 -1.79497,-0.11769 -0.9868,0.10567 -1.52897,0.0539 -2.18513,-0.20864 -0.85158,-0.34073 -0.907,-0.33546 -2.29056,0.21806 -1.11265,0.44513 -1.61372,0.53786 -2.3277,0.43079 l -0.90984,-0.13643 -0.23547,0.91087 c -0.1295,0.50098 -0.28864,1.0927 -0.35364,1.31493 -0.065,0.22223 -0.45627,0.7138 -0.8695,1.09237 -0.65466,0.59975 -0.74676,0.805 -0.7158,1.59525 0.0264,0.67443 -0.10753,1.11341 -0.52251,1.71222 -0.30693,0.4429 -0.68117,0.80527 -0.83165,0.80527 -0.15047,0 -0.39946,0.12073 -0.55329,0.26828 -1.51059,1.44893 -3.86953,2.48729 -5.63462,2.48027 -0.77765,-0.003 -3.06727,-0.62267 -3.35153,-0.90694 -0.25344,-0.25344 -0.91579,-0.16367 -1.46958,0.19918 -0.43805,0.28703 -0.90616,0.32714 -2.6913,0.23064 -1.24163,-0.0671 -2.49367,-0.25908 -2.94293,-0.45119 -0.43005,-0.1839 -0.91984,-0.28144 -1.0884,-0.21676 -0.3617,0.1388 -3.07873,-0.76441 -4.95881,-1.64844 -0.72919,-0.34287 -1.41125,-0.59208 -1.51569,-0.5538 -0.10443,0.0383 -0.62441,0.66164 -1.15551,1.38526 -0.57899,0.78888 -1.29546,1.48394 -1.78937,1.73592 -0.74258,0.37883 -0.83468,0.51726 -0.93473,1.40489 -0.061,0.54156 -0.26152,1.13519 -0.44551,1.31918 -0.38088,0.38088 -2.16997,1.10308 -2.73327,1.10334 -0.20619,9e-5 -1.07399,0.20585 -1.92846,0.45724 l -1.55358,0.45707 -1.45821,-0.69003 c -1.35371,-0.64058 -1.63263,-0.69332 -3.89237,-0.73596 -1.7592,-0.0332 -2.60098,-0.13905 -3.03573,-0.38174 -0.33086,-0.18469 -1.37119,-0.40393 -2.31183,-0.48719 -1.07106,-0.0948 -1.95376,-0.29988 -2.36177,-0.54868 -0.93971,-0.57304 -1.20179,-0.4982 -2.00963,0.57383 -0.39772,0.52779 -1.06447,1.13513 -1.48167,1.34964 -0.41761,0.21473 -0.93781,0.72776 -1.1574,1.14144 -0.21937,0.41327 -0.7688,1.00777 -1.22095,1.32111 -0.82243,0.56994 -0.89985,0.72996 -1.11229,2.29894 -0.0625,0.46182 -0.30367,1.09664 -0.53588,1.41071 l -0.42218,0.57104 2.445,0.071 2.44501,0.071 0.60335,0.67579 c 0.53673,0.60119 0.57768,0.7438 0.37086,1.29171 -0.42898,1.1365 -0.23445,1.24205 2.60094,1.41128 3.78315,0.2258 3.61546,-0.0385 3.5396,5.57966 l -0.0596,4.41349 -0.58862,0.849 c -0.57418,0.82819 -0.58514,0.89834 -0.44714,2.86157 0.11116,1.581418 0.0694,2.211808 -0.1949,2.942538 -0.62077,1.71622 -0.81439,4.35569 -0.55128,7.515012 0.13297,1.59653 0.18052,3.33977 0.10567,3.87387 -0.21234,1.51516 -0.22315,3.31644 -0.0344,5.7336 0.13415,1.71809 0.10777,2.38186 -0.11623,2.92467 -0.25206,0.61081 -0.29729,-0.61196 -0.34755,-9.39712 -0.0539,-9.418172 -0.0325,-10.127372 0.3175,-10.515172 0.31417,-0.34813 0.37528,-0.81899 0.37528,-2.891598 0,-2.39192 0.0197,-2.49918 0.58209,-3.16785 l 0.58208,-0.6921 v -4.39596 c 0,-3.98873 -0.0358,-4.42838 -0.3868,-4.746 -0.30002,-0.27151 -0.9361,-0.36796 -2.83525,-0.42989 -1.34665,-0.0439 -2.55371,-0.14491 -2.68237,-0.22442 -0.12865,-0.0795 -0.23391,-0.64163 -0.23391,-1.24915 0,-0.65715 -0.13347,-1.29513 -0.32951,-1.575 -0.31033,-0.44307 -0.48197,-0.47043 -2.95084,-0.47043 -1.50889,0 -2.67653,-0.0893 -2.75138,-0.21042 -0.0715,-0.11574 0.12449,-0.54415 0.4356,-0.95204 0.38872,-0.50963 0.53349,-0.90986 0.46283,-1.27949 -0.17958,-0.93941 0.35462,-2.05984 1.28567,-2.69658 0.47263,-0.32323 0.92596,-0.79763 1.0074,-1.05424 0.24113,-0.75971 0.98668,-1.6389 1.3898,-1.6389 0.37804,0 1.45043,-0.99769 1.45043,-1.3494 0,-0.10426 -0.23813,-0.41024 -0.52917,-0.67997 -0.40182,-0.3724 -0.52917,-0.70332 -0.52917,-1.37512 0,-1.62879 -1.64913,-3.68036 -3.71812,-4.62546 -1.61463,-0.73755 -2.4412,-0.66318 -3.04672,0.27414 -1.03836,1.60734 -1.31713,1.95479 -2.82238,3.51765 -2.14616,2.22829 -2.3941,2.62473 -2.07694,3.32082 0.22202,0.48729 0.16755,0.66558 -0.49914,1.63358 -0.4116,0.59763 -0.74836,1.20148 -0.74836,1.3419 0,0.50311 -0.81072,0.73393 -1.58916,0.45244 -0.4007,-0.14489 -0.79152,-0.20046 -0.8685,-0.12348 -0.077,0.077 -0.0285,0.70668 0.1078,1.39933 0.22366,1.13686 0.20746,1.32564 -0.16649,1.94055 -0.33013,0.54286 -0.36492,0.76017 -0.17134,1.07015 0.43018,0.68883 -0.11711,0.92229 -2.34963,1.00228 -1.12943,0.0405 -2.17258,0.17119 -2.3181,0.2905 -0.1527,0.12519 -0.26459,0.70416 -0.26459,1.36909 0,1.93791 -0.048,1.97028 -2.88868,1.94679 -3.48837,-0.0289 -3.31139,-0.30376 -3.28991,5.11052 0.0169,4.24691 0.0208,4.28199 0.56674,5.06982 0.52372,0.75572 0.54504,0.89425 0.44987,2.92304 -0.0865,1.844038 -0.0429,2.238278 0.32472,2.939028 0.40624,0.77427 0.42621,1.24767 0.46136,10.936632 0.0202,5.57003 -0.0347,10.17146 -0.12201,10.22541 -0.0873,0.0539 -0.16707,-0.40759 -0.17723,-1.02565 z m 44.08415,-48.45543 c 0.48312,-0.25409 1.80991,-0.23782 1.97183,0.0242 0.27398,0.44331 0.51325,0.18502 0.39169,-0.42281 -0.0753,-0.37657 -0.0196,-0.76374 0.13704,-0.9525 0.21137,-0.25468 0.20879,-0.38447 -0.0129,-0.65165 -0.22946,-0.27648 -0.22484,-0.3676 0.027,-0.53192 0.16714,-0.10906 0.47046,-0.15837 0.67405,-0.10959 0.23827,0.0571 0.53304,-0.14931 0.82733,-0.57933 0.25145,-0.36742 0.73147,-0.96209 1.06672,-1.3215 0.33526,-0.35941 0.78479,-0.97853 0.99896,-1.37583 0.27468,-0.50956 0.53731,-0.72237 0.89145,-0.72237 0.69524,0 0.95619,-0.2123 1.1003,-0.89518 0.0681,-0.32256 0.39282,-0.89605 0.72166,-1.2744 1.12117,-1.29001 1.50753,-0.64395 0.58253,0.97411 -0.28964,0.50665 -0.52661,1.0461 -0.52661,1.19877 0,0.35517 1.66085,1.5842 2.14081,1.5842 0.20025,0 0.79184,0.18336 1.31464,0.40746 0.7172,0.30742 1.38404,0.3988 2.7163,0.37223 1.329,-0.0265 1.9333,0.0559 2.44315,0.33337 0.80437,0.4377 2.37507,0.47806 3.68104,0.0946 0.51327,-0.15071 1.59997,-0.25256 2.41489,-0.22635 1.81947,0.0585 2.59919,-0.3376 4.65864,-2.36685 0.8666,-0.8539 1.64581,-1.43109 2.03782,-1.50949 0.34909,-0.0698 0.78594,-0.35774 0.97077,-0.63983 0.28967,-0.4421 0.44538,-0.49442 1.12811,-0.37907 0.95695,0.16167 1.06606,0.0235 1.23704,-1.56662 0.0996,-0.92598 0.22416,-1.22936 0.56671,-1.37988 0.2415,-0.10612 0.59426,-0.4633 0.7839,-0.79375 0.33964,-0.59177 0.86024,-0.78573 1.09396,-0.40756 0.0657,0.10629 0.49917,0.25741 0.96329,0.33582 0.87582,0.14797 1.22702,0.004 3.2237,-1.325 0.72247,-0.48074 1.03456,-0.53255 3.70417,-0.61487 2.77242,-0.0855 2.93806,-0.11535 3.38132,-0.60955 0.25636,-0.2858 0.5982,-0.51965 0.75967,-0.51965 0.16146,0 0.64162,-0.26193 1.06702,-0.58208 0.57218,-0.4306 0.86056,-0.87191 1.10816,-1.69579 0.18408,-0.61254 0.56573,-1.38829 0.84812,-1.72389 0.29711,-0.35309 0.51343,-0.88135 0.51343,-1.25376 0,-0.35397 0.0974,-0.89986 0.21653,-1.2131 0.18288,-0.48099 0.13144,-0.68106 -0.33095,-1.28729 -0.44255,-0.58021 -0.59192,-1.10896 -0.77932,-2.75872 -0.24244,-2.1343 -0.5851,-2.82037 -1.40867,-2.82037 -0.21858,0 -0.51091,-0.13675 -0.64963,-0.30389 -0.13871,-0.16714 -0.54414,-0.36801 -0.90095,-0.44638 -0.3568,-0.0784 -1.04078,-0.32053 -1.51995,-0.53813 -0.47917,-0.2176 -1.23428,-0.39772 -1.67803,-0.40028 -0.8378,-0.005 -3.95569,-1.3729 -3.95569,-1.73568 0,-0.10757 -0.35719,-0.34144 -0.79375,-0.51973 -0.43656,-0.17829 -1.27,-0.53934 -1.85209,-0.80234 -2.3362,-1.05554 -4.74932,-1.51504 -7.03173,-1.33897 -1.55268,0.11978 -2.10865,0.31252 -3.20346,1.11056 -0.6505,0.47417 -0.75854,0.49268 -1.28541,0.22022 -0.31638,-0.16361 -0.70725,-0.45654 -0.86861,-0.65097 -0.42944,-0.51744 -1.17326,-0.74417 -2.7042,-0.82428 -1.51404,-0.0792 -2.01956,0.20801 -2.29369,1.30324 -0.24393,0.97459 -0.85309,1.82216 -1.79647,2.49955 -1.02407,0.73534 -1.21829,1.08446 -0.67189,1.20776 0.57128,0.12892 1.48596,-0.39804 1.79899,-1.03642 0.42924,-0.87538 2.13772,-1.38969 4.72364,-1.42197 1.78483,-0.0223 2.2239,0.0403 2.78532,0.39688 1.00529,0.63854 2.25598,2.17709 2.92508,3.59833 0.58939,1.25191 0.59432,1.29497 0.34612,3.0225 -0.2212,1.53961 -0.2089,1.84287 0.10122,2.49641 0.19416,0.40915 0.60211,0.87344 0.90655,1.03175 0.71156,0.37001 1.45912,2.30913 1.07066,2.7772 -0.32513,0.39175 -0.90987,0.38439 -1.69445,-0.0213 -0.60679,-0.31379 -0.63375,-0.30692 -0.83091,0.21167 -0.11208,0.29478 -0.34901,0.53597 -0.52652,0.53597 -0.41498,0 -0.41852,-0.71534 -0.005,-1.05833 0.36182,-0.30028 0.43273,-1.27 0.0929,-1.27 -0.1448,0 -0.17605,-0.32404 -0.0879,-0.91172 0.10438,-0.69601 0.0574,-0.97757 -0.1987,-1.19008 -0.18448,-0.1531 -0.33541,-0.53123 -0.33541,-0.84028 0,-0.32015 -0.25563,-0.84179 -0.59414,-1.21241 -0.62665,-0.68609 -1.63721,-0.95622 -4.65797,-1.2451 -1.32484,-0.1267 -1.34217,-0.12135 -2.02586,0.62506 l -0.68959,0.75286 h -1.94953 c -2.45001,0 -2.62656,0.23539 -1.24262,1.65672 0.5297,0.54401 1.11926,1.37011 1.31013,1.83578 0.19087,0.46567 0.56963,1.08479 0.84168,1.37583 0.9373,1.0027 1.44387,2.30639 1.33528,3.43645 -0.18661,1.94209 -0.5523,1.85477 -3.14005,-0.74982 l -1.57865,-1.58892 -1.9725,-0.15431 -1.97251,-0.15431 -1.40975,-1.36634 c -1.65689,-1.60587 -2.70332,-2.12212 -4.53772,-2.23862 -0.8003,-0.0508 -1.57397,-0.23671 -1.91484,-0.46005 -0.44608,-0.29229 -1.28178,-0.41334 -3.79708,-0.55003 -3.92997,-0.21357 -5.25986,-0.45644 -6.14477,-1.12219 -0.76031,-0.57202 -3.53764,-0.98783 -4.01719,-0.60144 -0.1429,0.11514 -0.90279,0.2486 -1.68865,0.29658 -1.29563,0.0791 -1.50282,0.158 -2.2225,0.84619 -0.43652,0.41742 -1.15423,0.87384 -1.59492,1.01427 -0.44068,0.14043 -0.94181,0.46984 -1.1136,0.73204 -0.1718,0.26219 -0.83517,0.83679 -1.47417,1.27688 -1.05856,0.72906 -1.16181,0.87059 -1.16181,1.59252 0,1.03246 0.6718,1.90777 1.46422,1.90777 0.32276,0 0.76053,0.19194 0.97284,0.42653 0.2123,0.23459 0.6795,0.49965 1.03822,0.589 0.53846,0.13414 0.77321,0.41034 1.34594,1.58359 0.66955,1.37158 0.68198,1.44382 0.35667,2.0729 l -0.33706,0.65179 -0.48718,-0.52568 c -0.45291,-0.48869 -1.09881,-0.83226 -3.98324,-2.11877 -1.82126,-0.81231 -2.3011,-0.95418 -4.07458,-1.20468 -0.95571,-0.13499 -2.01604,-0.43184 -2.43417,-0.68147 -0.45639,-0.27248 -1.18781,-0.46405 -1.905,-0.49895 -0.64029,-0.0312 -1.89568,-0.12019 -2.78975,-0.19785 -1.46959,-0.12763 -1.73366,-0.0894 -2.75167,0.39786 -1.45218,0.69514 -4.04151,3.32826 -3.94441,4.01111 0.0523,0.36773 0.22637,0.48157 0.8075,0.52807 0.63043,0.0504 0.79347,-0.0344 1.09407,-0.5693 0.41557,-0.73952 1.68487,-1.17097 2.81897,-0.95821 0.85505,0.16041 2.6376,1.47601 2.673,1.97279 0.0134,0.18816 0.008,0.50278 -0.011,0.69916 -0.0536,0.54063 0.76997,0.90393 1.39923,0.61722 0.94171,-0.42907 2.94444,-0.28517 4.08666,0.29364 0.88349,0.4477 1.22516,0.50812 2.26838,0.40115 1.10516,-0.11332 1.27401,-0.076 1.68513,0.37249 0.25129,0.27415 0.68354,1.16419 0.96055,1.97787 0.34875,1.02441 0.65314,1.55396 0.98967,1.72174 0.79243,0.39507 0.93422,0.63839 1.10489,1.89608 0.16937,1.24808 0.005,1.99982 -0.5631,2.56742 -0.39361,0.39361 -0.29521,0.50949 1.03104,1.21427 0.82536,0.4386 1.31057,0.54023 2.57914,0.54023 0.85939,0 1.83066,0.1128 2.15838,0.25066 0.34113,0.1435 1.69675,0.25661 3.171,0.26458 1.41632,0.008 2.62636,0.0651 2.68898,0.12763 0.17964,0.17941 4.43265,-0.0352 4.82906,-0.24371 z m -19.724,-9.92416 c 0,-0.11642 -0.1905,-0.21167 -0.42333,-0.21167 -0.23284,0 -0.42334,0.0952 -0.42334,0.21167 0,0.11642 0.1905,0.21167 0.42334,0.21167 0.23283,0 0.42333,-0.0952 0.42333,-0.21167 z m -4.59126,-0.63211 c 0.32702,-0.002 0.54274,-0.0868 0.47938,-0.18928 -0.19142,-0.30973 -1.22494,-0.41896 -1.74068,-0.18397 -0.58897,0.26835 -0.41721,0.66699 0.21436,0.49752 0.2488,-0.0668 0.71992,-0.12268 1.04694,-0.12427 z m 10.05402,-5.09877 c -0.0417,-0.12514 -0.16633,-0.22754 -0.27693,-0.22754 -0.11059,0 -0.23521,0.1024 -0.27693,0.22754 -0.0417,0.12515 0.0829,0.22755 0.27693,0.22755 0.19403,0 0.31865,-0.1024 0.27693,-0.22755 z m 27.29029,-9.08579 c 0.43441,-0.23283 0.95232,-0.42333 1.1509,-0.42333 0.89651,0 0.45764,-0.68207 -0.88593,-1.37686 -0.38531,-0.19925 -1.02377,-0.31299 -1.54451,-0.27515 l -0.88768,0.0645 v 0.94625 c 0,0.79683 0.0836,0.98852 0.52917,1.21396 0.6894,0.34878 0.71252,0.34668 1.63805,-0.14938 z M 175.40342,35.0134 c 0.17032,-0.20522 0.21043,-0.58781 0.11498,-1.09661 -0.0942,-0.50232 -0.20576,-0.6857 -0.31224,-0.51341 -0.0911,0.14741 -0.24553,0.25282 -0.34317,0.23424 -0.20129,-0.0383 -0.45478,0.60361 -0.3961,1.00304 0.0214,0.14552 0.0508,0.35983 0.0653,0.47625 0.0397,0.318 0.57406,0.25452 0.8712,-0.10351 z m 16.08859,-1.27232 c 0,-0.17463 -0.0896,-0.3175 -0.19918,-0.3175 -0.2669,0 -0.45806,0.33053 -0.28896,0.49964 0.23838,0.23838 0.48814,0.14518 0.48814,-0.18214 z m 4.18223,-1.54003 c 0.0572,-0.17173 -0.16524,-0.25914 -0.6596,-0.25914 -0.74106,0 -1.11262,0.25343 -0.89287,0.609 0.15925,0.25767 1.44667,-0.0324 1.55247,-0.34986 z m 9.275,0.19073 c -0.0629,-0.10182 -0.63857,-0.2286 -1.27921,-0.28173 -0.67138,-0.0557 -1.33015,-0.24624 -1.55516,-0.44987 -0.51123,-0.46265 -0.71078,-0.44635 -1.42642,0.11658 l -0.59732,0.46985 0.51586,0.14405 c 0.76829,0.21454 4.47475,0.2155 4.34225,0.001 z m -56.53241,81.04018 c -0.0725,-0.11732 -0.10665,-1.29565 -0.0759,-2.61851 0.0474,-2.03732 0.10033,-2.36083 0.34612,-2.11503 0.1596,0.1596 0.42625,0.29018 0.59256,0.29018 0.38666,0 0.39564,0.55392 0.0114,0.70137 -0.31656,0.12148 -0.52862,0.91565 -0.69604,2.6067 l -0.10748,1.08557 0.91768,-0.10324 c 1.04552,-0.11763 1.11903,-0.15463 0.92639,-0.46632 -0.0767,-0.12416 -0.46727,-0.22575 -0.86786,-0.22575 -0.52965,0 -0.72834,-0.0934 -0.72834,-0.34218 0,-0.25435 0.14123,-0.31517 0.55027,-0.23698 0.56202,0.10744 2.19456,-0.4068 2.44719,-0.77085 0.077,-0.11093 0.20278,-0.62051 0.27954,-1.13239 0.17692,-1.17977 -0.10188,-1.53171 -1.23917,-1.56431 -1.16117,-0.0333 -2.1562,-0.25586 -2.09103,-0.46774 0.029,-0.0941 1.82078,-0.20515 3.98184,-0.24674 4.78502,-0.0921 4.96136,-0.15957 4.96136,-1.89919 0,-0.92088 -0.0866,-1.20795 -0.43888,-1.45469 -0.65054,-0.45565 -0.14899,-0.65641 1.48879,-0.59594 1.62692,0.0601 3.39349,-0.30224 3.7655,-0.77227 0.38682,-0.48874 0.3358,-2.04745 -0.0783,-2.39109 -0.35264,-0.29268 -0.54419,-0.29968 -6.06647,-0.22172 -2.56994,0.0363 -2.95763,0.0888 -3.26004,0.44206 -0.33659,0.39311 -0.35404,0.39287 -0.90173,-0.0121 -0.40175,-0.29704 -0.95622,-0.42581 -1.97562,-0.45884 -0.92441,-0.03 -1.45375,-0.1407 -1.52247,-0.31852 -0.10516,-0.272082 0.4428,-0.618502 0.65023,-0.411082 0.0602,0.0602 0.59495,-0.0186 1.18833,-0.17514 0.71616,-0.18892 1.20533,-0.21693 1.455,-0.0833 0.57758,0.30911 0.82728,0.24209 0.82728,-0.22204 0,-0.48319 0.43695,-0.54777 1.0741,-0.15875 0.36983,0.2258 0.47923,0.20268 0.74632,-0.15773 0.26837,-0.36213 0.34147,-0.37721 0.51303,-0.10583 0.11004,0.17406 0.20153,0.38791 0.20331,0.47523 0.002,0.0873 0.31574,0.15875 0.69767,0.15875 0.58564,0 0.73415,-0.10523 0.94797,-0.67171 0.16292,-0.43164 0.18131,-0.75872 0.0514,-0.9152 -0.12997,-0.1566 -0.11982,-0.32578 0.0284,-0.47403 0.30641,-0.30641 0.0478,-0.69074 -0.46476,-0.69074 -0.63836,0 -0.48476,-0.31156 0.29211,-0.59248 0.87762,-0.31735 2.41018,-0.32752 3.28713,-0.0218 0.95466,0.33279 0.82447,0.57877 -0.39174,0.7401 -0.62872,0.0834 -1.05834,0.24747 -1.05834,0.40417 0,0.14507 -0.0577,0.55218 -0.12818,0.90469 -0.11664,0.58319 -0.0547,0.67613 0.68791,1.03189 1.04389,0.50007 3.32856,0.47143 3.90356,-0.0489 0.28565,-0.25853 0.5952,-0.31398 1.18935,-0.21305 1.76572,0.29994 1.85609,0.28094 1.9288,-0.40541 0.037,-0.34925 0.26686,-0.79002 0.51081,-0.97948 l 0.44353,-0.34448 -0.49171,-0.26315 c -0.30485,-0.16315 -1.29991,-0.25744 -2.61846,-0.24813 -2.55999,0.0181 -2.9537,-0.17793 -2.11521,-1.05312 0.51646,-0.53907 0.55512,-0.68139 0.37864,-1.39392 -0.3151,-1.27223 -0.82403,-1.40445 -5.32027,-1.38226 -2.11955,0.0105 -3.95311,0.0805 -4.07458,0.15552 -0.31042,0.19185 -0.27602,2.49583 0.0437,2.92921 0.17629,0.23894 0.63371,0.38022 1.37069,0.42337 1.33365,0.0781 1.72989,0.34609 0.56959,0.38526 -1.61351,0.0545 -3.17592,0.0599 -4.69195,0.0162 -1.33056,-0.0383 -1.53458,-0.0958 -1.53458,-0.43202 0,-0.33969 0.1415,-0.3761 1.13996,-0.2933 1.53629,0.1274 1.93411,-0.25594 1.93127,-1.86093 l -0.002,-1.16211 -1.50302,-0.10583 c -0.88344,-0.0622 -1.66032,-0.23672 -1.88462,-0.42333 -0.20988,-0.17463 -0.41458,-0.29369 -0.45489,-0.26459 -0.124,0.0895 -0.12504,-0.14973 -0.003,-0.61762 0.10511,-0.40195 0.2083,-0.43028 1.02852,-0.28233 1.53945,0.2777 3.23543,0.21369 4.25721,-0.16067 0.42484,-0.15565 0.6628,-0.14863 0.83609,0.0247 0.64242,0.64242 2.48589,-0.19213 2.48589,-1.125378 0,-0.27066 0.14287,-0.54693 0.3175,-0.61394 0.40628,-0.15591 0.40513,-0.93203 -0.003,-1.90844 l -0.32034,-0.76668 -1.53175,-0.0251 c -0.84246,-0.0138 -1.62699,-0.003 -1.74341,0.0244 -0.80061,0.18711 -5.16323,-0.061 -5.71281,-0.32491 l -0.63719,-0.30595 0.52917,0.47451 c 0.4712,0.42254 0.52501,0.62522 0.49117,1.85035 -0.0209,0.75671 -0.12876,1.85208 -0.23969,2.434168 -0.17815,0.93481 -0.20459,0.75873 -0.22658,-1.508668 -0.0189,-1.95313 -0.0978,-2.62752 -0.32982,-2.82006 -0.1677,-0.13918 -0.25638,-0.37954 -0.19706,-0.53413 0.0593,-0.15459 0.1251,-0.93297 0.14617,-1.72973 l 0.0383,-1.44865 1.25749,-0.17536 c 0.8343,-0.11635 1.43119,-0.0962 1.77361,0.0598 0.64714,0.29486 0.73784,0.20557 0.48001,-0.47257 -0.25428,-0.66881 -1.0373,-0.86549 -2.41584,-0.6068 -0.84046,0.15771 -1.04329,0.13463 -1.14494,-0.13027 -0.0679,-0.17706 -0.0288,-0.47211 0.087,-0.65566 0.17133,-0.27161 0.6997,-0.33967 2.83827,-0.3656 1.48806,-0.018 2.90316,-0.14302 3.26275,-0.28815 0.49681,-0.20052 0.80432,-0.20058 1.41302,-2.9e-4 1.01683,0.3346 1.33329,0.18806 1.87131,-0.86652 0.50524,-0.99037 0.43281,-1.76717 -0.24516,-2.62906 -0.37038,-0.47087 -0.58509,-0.53911 -1.69633,-0.53911 -0.9237,0 -1.24814,-0.0725 -1.18418,-0.26458 0.13113,-0.39386 0.7627,-0.44845 1.68118,-0.14533 0.73936,0.24401 0.87408,0.22753 1.41623,-0.1733 0.46525,-0.34398 0.79335,-0.41692 1.4682,-0.3264 0.8572,0.11497 0.87826,0.10176 1.54362,-0.96858 0.37101,-0.59683 0.75793,-1.08514 0.85983,-1.08514 0.10189,0 0.27228,0.22887 0.37863,0.5086 0.26028,0.68458 0.53962,0.82329 0.86601,0.43001 0.46607,-0.56157 0.98305,-0.74071 1.53358,-0.5314 0.31964,0.12153 0.86384,0.11712 1.43691,-0.0116 1.10782,-0.24891 1.36809,-0.009 1.58933,1.46659 0.21956,1.46411 0.0489,1.52451 -4.30821,1.52451 -2.0227,0 -3.85272,0.0937 -4.06671,0.20823 -0.56649,0.30317 -0.76707,2.04465 -0.35037,3.04195 0.36321,0.86927 0.49848,0.93053 0.88564,0.40107 0.22953,-0.3139 0.56441,-0.36164 2.19452,-0.3129 1.40068,0.0419 2.09299,-0.03 2.54654,-0.26458 0.70508,-0.36461 1.70225,-0.4293 1.70225,-0.11044 0,0.11642 0.18475,0.21167 0.41055,0.21167 0.32159,0 0.4248,-0.17192 0.47625,-0.79336 0.0541,-0.65364 0.20762,-0.88493 0.87153,-1.31329 0.6449,-0.41609 0.782,-0.61489 0.68648,-0.99546 -0.102,-0.40641 -0.004,-0.50764 0.67584,-0.69637 0.43735,-0.12146 1.22381,-0.21924 1.74768,-0.2173 l 0.9525,0.004 -0.52917,0.41392 c -0.29104,0.22766 -0.71966,0.4175 -0.9525,0.42187 -0.88442,0.0166 -1.02214,0.29255 -0.86023,1.72363 0.14639,1.29394 0.38855,1.87617 0.78032,1.87617 0.10216,0 0.18575,-0.13725 0.18575,-0.30501 0,-0.56123 0.44019,-0.58529 0.93524,-0.0511 0.46107,0.49751 0.58917,0.52309 2.15568,0.43052 1.71421,-0.10129 3.52089,-0.56763 3.85784,-0.99578 0.10508,-0.13353 0.2835,-0.52853 0.39647,-0.87778 0.19627,-0.60677 0.25877,-0.635 1.40594,-0.635 0.88199,0 1.22682,0.0842 1.29961,0.3175 0.0545,0.17463 0.1207,1.95766 0.14712,3.96229 0.0465,3.53082 0.033,3.66079 -0.4325,4.15629 -0.43835,0.46661 -0.48392,0.73189 -0.51921,3.02271 -0.05,3.244838 -0.1057,3.317848 -2.64285,3.463708 -1.82202,0.10475 -1.84433,0.11281 -2.18168,0.78805 -0.34848,0.69749 -0.61166,0.71073 -0.61166,0.0308 0,-0.70273 -0.71666,-0.81884 -5.05408,-0.81884 -4.13664,0 -4.24292,0.011 -4.56475,0.47043 -0.18123,0.25874 -0.32951,0.87567 -0.32951,1.37096 0,0.74538 0.0987,0.96518 0.57298,1.27582 0.4884,0.31989 0.9805,0.36641 3.33375,0.31511 2.5261,-0.0551 4.46693,-0.13969 5.14203,-0.2242 0.14552,-0.0182 0.45753,-0.22607 0.69337,-0.46191 l 0.42879,-0.42879 0.5003,0.58163 c 0.50025,0.58158 0.5004,0.58161 1.94671,0.33386 0.94325,-0.16157 1.49136,-0.17503 1.57562,-0.0387 0.0711,0.11499 0.12128,1.18164 0.11158,2.37034 l -0.0176,2.161292 -1.5875,0.11321 c -0.87312,0.0623 -1.70656,0.18696 -1.85208,0.27708 -0.3292,0.20388 -0.35517,2.32579 -0.0358,2.92259 0.12585,0.23515 0.17914,0.47722 0.11843,0.53794 -0.114,0.11399 -0.97887,0.16842 -3.76419,0.23691 -1.81788,0.0447 -1.79448,0.0235 -2.00531,1.81734 -0.1031,0.87718 -0.0561,1.18049 0.22663,1.46324 0.24784,0.24784 0.46524,0.2989 0.7124,0.16733 0.19565,-0.10415 1.10397,-0.31472 2.0185,-0.46795 1.40468,-0.23534 1.69135,-0.35373 1.84684,-0.76272 0.22688,-0.59674 0.61788,-0.63521 0.61788,-0.0608 0,0.23519 0.14111,0.42334 0.3175,0.42334 0.37981,0 0.42097,-0.65853 0.0635,-1.016 -0.30824,-0.30825 -0.33693,-0.29841 1.10067,-0.37726 0.64029,-0.0351 1.35299,-0.0932 1.58377,-0.12905 0.36596,-0.0569 0.44309,0.10661 0.60336,1.27878 0.10322,0.75493 0.1036,1.42412 8.8e-4,1.52685 -0.10058,0.10058 -0.75309,0.24696 -1.45003,0.32529 -1.71733,0.19301 -1.84513,0.32165 -1.43063,1.44002 0.41107,1.10912 1.39296,1.642 1.76042,0.9554 0.38295,-0.71556 0.92809,-0.48528 1.3136,0.55488 0.19581,0.52832 0.27481,0.91039 0.17555,0.84904 -0.27651,-0.17089 -0.42255,0.66341 -0.16177,0.9242 0.16491,0.16491 -1.18256,0.22951 -4.78698,0.22951 -4.6896,0 -5.0165,-0.0248 -5.0165,-0.381 0,-0.58309 -0.43134,-0.88867 -1.25942,-0.89224 -0.41328,-0.002 -0.89429,-0.097 -1.06892,-0.21167 -0.28222,-0.18526 -0.28222,-0.2319 0,-0.41969 0.17463,-0.1162 0.6985,-0.21425 1.16417,-0.21789 4.57066,-0.0358 5.82083,-0.25432 5.82083,-1.01762 0,-0.20546 0.10332,-0.47687 0.22959,-0.60314 0.12627,-0.12627 0.19771,-0.45489 0.15875,-0.73025 l -0.0708,-0.50066 -4.41804,-0.0573 c -2.87447,-0.0373 -4.51217,0.0208 -4.68745,0.16629 -0.67233,0.55799 -0.51844,2.63094 0.21231,2.85975 1.04161,0.32615 1.08016,0.36466 0.53235,0.53178 -0.67308,0.20534 -2.84716,0.24925 -3.03511,0.0613 -0.0783,-0.0783 0.1532,-0.38904 0.5144,-0.69058 0.62058,-0.51808 0.64832,-0.60427 0.50406,-1.56625 -0.12045,-0.8032 -0.259,-1.05844 -0.65663,-1.20962 -0.54777,-0.20826 -8.39548,-0.10699 -8.75132,0.11293 -0.25997,0.16067 -0.0506,2.41291 0.26103,2.80793 0.1148,0.14552 0.60188,0.26604 1.0824,0.26782 1.05724,0.004 1.38451,0.18553 1.3347,0.74068 -0.0224,0.2492 0.0915,0.42025 0.2798,0.42025 0.22002,0 0.29879,-0.17871 0.25657,-0.58209 -0.0335,-0.32014 0.0372,-0.58208 0.15712,-0.58208 0.11992,0 0.47214,-0.28519 0.78271,-0.63374 0.55224,-0.6198 0.57118,-0.62446 0.8603,-0.21167 0.20175,0.28803 0.54391,0.42511 1.07738,0.43162 0.42997,0.005 1.0675,0.13672 1.41675,0.29214 0.7305,0.3251 0.55501,0.45585 -0.9525,0.70969 -0.69097,0.11635 -1.00987,0.29011 -1.16144,0.63284 -0.20733,0.46882 -0.24591,0.47245 -5.01459,0.47245 -3.00003,0 -4.85518,-0.0801 -4.93748,-0.2133 z m 23.1257,-0.36878 c 0.0595,-0.17883 -0.15773,-0.26458 -0.67038,-0.26458 -0.78616,0 -1.03717,0.31779 -0.38805,0.4913 0.56491,0.15099 0.96091,0.0662 1.05843,-0.22672 z m 2.16948,0.19403 c 0,-0.27561 -0.25162,-0.4589 -0.45631,-0.3324 -0.21891,0.13529 -0.0301,0.50879 0.25714,0.50879 0.10954,0 0.19917,-0.0794 0.19917,-0.17639 z m -14.47089,-6.82451 c 0.20568,-0.6214 0.34171,-0.73011 0.9525,-0.76118 0.39191,-0.0199 1.94179,-0.0949 3.44419,-0.16658 2.88401,-0.13761 3.0892,-0.18018 3.0892,-0.6408 0,-0.23491 -0.74805,-0.28762 -3.96875,-0.27961 -2.31949,0.006 -4.0787,0.098 -4.23333,0.22205 -0.46548,0.3733 -0.24796,2.58715 0.23862,2.42852 0.13069,-0.0426 0.3456,-0.40369 0.47757,-0.8024 z m 7.90923,-7.815792 c 0,-0.11642 -0.10088,-0.21167 -0.22416,-0.21167 -0.12329,0 -0.16529,0.0952 -0.0933,0.21167 0.072,0.11642 0.17282,0.21167 0.22416,0.21167 0.0513,0 0.0933,-0.0953 0.0933,-0.21167 z m 7.77132,-1.02959 c 1.3368,-0.15752 1.73866,-0.32598 1.4548,-0.60984 -0.0868,-0.0868 -1.82873,-0.14509 -3.87102,-0.1296 -2.87063,0.0218 -3.75344,0.0932 -3.89036,0.31475 -0.24642,0.39871 0.15636,0.76451 0.48259,0.43828 0.32327,-0.32328 1.48639,-0.29866 2.70933,0.0573 0.52388,0.1525 1.143,0.23381 1.37584,0.18068 0.23283,-0.0531 1.0153,-0.16635 1.73882,-0.25161 z m -15.20007,-6.46462 c 0.1634,-0.12739 0.87777,-0.2441 1.5875,-0.25934 1.56381,-0.0336 2.45458,-0.35194 2.45458,-0.877208 0,-0.21243 0.1057,-0.49194 0.23489,-0.62113 0.35722,-0.35722 1.45844,0.0915 1.45844,0.59426 0,0.28356 0.1498,0.402628 0.50652,0.402628 0.50864,0 0.76348,-0.348228 0.76348,-1.043258 0,-0.2055 0.1946,-0.598 0.43244,-0.87224 0.66164,-0.76288 0.46659,-1.3152 -0.53827,-1.52416 -0.53421,-0.11109 -1.03227,-0.0919 -1.34959,0.0519 -0.33438,0.15158 -0.72451,0.1608 -1.16416,0.0275 -0.83916,-0.2544 -5.04892,-0.46975 -5.36494,-0.27444 -0.13063,0.0807 -0.30424,1.05594 -0.38581,2.16713 -0.12833,1.748298 -0.0998,2.068888 0.21225,2.380888 0.35095,0.35096 0.53875,0.3261 1.15267,-0.15255 z m -0.48441,-3.399178 c -0.47013,-0.71751 -0.45083,-0.74828 0.46954,-0.74828 1.05605,0 1.1848,0.16142 0.61138,0.76648 -0.59,0.62255 -0.66188,0.62134 -1.08092,-0.0182 z m 11.33349,2.705278 c 0.30853,-0.271768 0.42934,-0.268908 0.99491,0.0236 0.90653,0.46879 1.12684,0.42562 1.90025,-0.372338 0.47975,-0.49498 0.64005,-0.81856 0.53768,-1.08535 -0.12789,-0.33328 -0.0468,-0.36855 0.658,-0.28626 0.63913,0.0746 0.8239,0.0172 0.90166,-0.28018 0.0538,-0.20572 0.34986,-0.46214 0.65791,-0.56984 0.52421,-0.18327 0.50585,-0.19754 -0.28658,-0.22266 -1.89373,-0.0601 -2.84588,-0.15497 -2.98887,-0.29796 -0.083,-0.083 -0.51461,-0.15085 -0.9592,-0.15085 -0.44459,0 -1.23097,-0.11303 -1.7475,-0.25119 -1.37214,-0.36699 -1.60693,-0.0971 -1.60693,1.8473 0,2.055328 0.0957,2.271748 0.92642,2.095418 0.3636,-0.0772 0.81911,-0.27951 1.01225,-0.44964 z m 1.88869,-1.000918 c -0.26678,-0.28396 -0.42182,-0.6186 -0.34454,-0.74363 0.22281,-0.36052 0.46281,-0.26909 0.85171,0.32445 0.49965,0.76256 0.11448,1.0809 -0.50717,0.41918 z m 5.84702,-1.65889 c -0.0505,-0.26193 -0.0917,-0.0476 -0.0917,0.47625 0,0.52388 0.0413,0.73819 0.0917,0.47625 0.0504,-0.26193 0.0504,-0.69056 0,-0.9525 z m -24.9147,-2.27524 c 0.21734,-0.11632 1.04452,-0.24601 1.83816,-0.28821 0.79365,-0.0422 1.53824,-0.1062 1.65466,-0.14225 0.11642,-0.036 0.66774,0.01 1.22517,0.10179 1.06901,0.17649 2.60131,-0.11263 3.48442,-0.65745 0.39913,-0.24624 0.47625,-0.47951 0.47625,-1.44061 0,-0.68547 -0.10644,-1.21532 -0.26459,-1.31715 -0.4499,-0.28968 -8.45597,-0.23026 -8.96488,0.0665 -0.55132,0.32153 -0.83651,2.2182 -0.4851,3.22624 0.24745,0.70984 0.41561,0.78307 1.03591,0.4511 z m -0.84635,-1.36352 c 0,-0.16775 0.0953,-0.36387 0.21167,-0.43582 0.11642,-0.0719 0.21167,0.0653 0.21167,0.30501 0,0.2397 -0.0952,0.43582 -0.21167,0.43582 -0.11642,0 -0.21167,-0.13725 -0.21167,-0.30501 z m 0.21167,-1.5875 c 0,-0.2397 0.0953,-0.43582 0.21167,-0.43582 0.11641,0 0.21166,0.13725 0.21166,0.30501 0,0.16775 -0.0953,0.36387 -0.21166,0.43582 -0.11642,0.0719 -0.21167,-0.0653 -0.21167,-0.30501 z m 15.43224,2.70689 c 0.57901,-0.004 1.15549,0.0553 1.28106,0.13295 0.12557,0.0776 0.58364,0.0212 1.01792,-0.12544 0.43429,-0.1466 1.07537,-0.27243 1.42462,-0.27963 0.62586,-0.0129 0.63754,-0.0343 0.81203,-1.48423 0.15535,-1.29087 0.13094,-1.50484 -0.1992,-1.74625 -0.27946,-0.20434 -1.48287,-0.27511 -4.67807,-0.27511 h -4.30182 l -0.41943,0.68792 c -0.47067,0.77194 -0.54088,1.78076 -0.17918,2.57459 0.22264,0.48865 0.36962,0.53619 1.85208,0.59912 0.88564,0.0376 1.77382,0.0359 1.97375,-0.004 0.19992,-0.0396 0.83723,-0.0757 1.41624,-0.0802 z m -4.09041,-0.95051 c -0.0734,-0.19128 -0.0899,-0.39132 -0.0367,-0.44452 0.16822,-0.16822 0.54823,0.16956 0.54823,0.48731 0,0.41519 -0.34689,0.38617 -0.5115,-0.0428 z m 6.64984,-1.90708 c -0.40746,-0.0427 -1.07421,-0.1408 -1.48167,-0.21801 l -0.74083,-0.14037 0.88113,-0.1339 c 1.08016,-0.16414 2.82015,0.0248 2.88283,0.31299 0.0516,0.23719 -0.44154,0.29455 -1.54146,0.17929 z m -7.20029,-0.38659 c 0.16287,-0.19624 0.51929,-0.31602 0.83217,-0.27965 0.84325,0.098 0.6478,0.47874 -0.28489,0.55494 -0.74683,0.061 -0.80295,0.0328 -0.54728,-0.27529 z m 11.18925,0.42997 c 0.0468,-0.2413 -0.0295,-0.34308 -0.21166,-0.28242 -0.15664,0.0522 -0.31771,0.2646 -0.35793,0.47209 -0.0468,0.2413 0.0295,0.34308 0.21166,0.28242 0.15664,-0.0522 0.31771,-0.2646 0.35793,-0.47209 z m -7.412,-3.4248 c -0.0942,-0.82421 -0.65741,-0.80239 -0.70035,0.0271 -0.0341,0.65876 0.28449,1.06607 0.59275,0.75781 0.0974,-0.0974 0.14581,-0.45061 0.1076,-0.78494 z m -8.85363,34.42299 c 0,-0.11642 0.0952,-0.21167 0.21167,-0.21167 0.11641,0 0.21166,0.0952 0.21166,0.21167 0,0.11641 -0.0952,0.21166 -0.21166,0.21166 -0.11642,0 -0.21167,-0.0952 -0.21167,-0.21166 z m 4.81542,-0.15366 c -1.50287,-0.12138 -1.21267,-0.48134 0.38805,-0.48134 1.02066,0 1.36991,0.0708 1.30538,0.26458 -0.10094,0.30316 -0.30315,0.32904 -1.69343,0.21676 z m 14.48251,-2.59801 c -0.0231,-0.52388 -0.0949,-1.19063 -0.15955,-1.48167 -0.10048,-0.45252 -0.0831,-0.47538 0.11976,-0.15783 0.13049,0.20423 0.20229,0.87098 0.15955,1.48166 l -0.0777,1.11034 z m -26.56515,-1.19945 c -0.24355,-0.24355 -0.15415,-0.49388 0.17639,-0.49388 0.17462,0 0.3175,0.14287 0.3175,0.3175 0,0.33053 -0.25034,0.41994 -0.49389,0.17638 z m 15.10482,-0.0624 c -0.2669,-0.16879 -0.25932,-0.21709 0.0529,-0.3369 0.43416,-0.1666 0.99949,0.0156 0.99949,0.32212 0,0.27071 -0.63365,0.27961 -1.05241,0.0148 z m -2.22843,-0.21981 c 0.0719,-0.11641 0.17282,-0.21166 0.22416,-0.21166 0.0513,0 0.0933,0.0952 0.0933,0.21166 0,0.11642 -0.10087,0.21167 -0.22416,0.21167 -0.12329,0 -0.16529,-0.0952 -0.0933,-0.21167 z m -15.72658,-5.15429 c 0.007,-2.2389 0.0873,-3.66195 0.19694,-3.49251 0.10181,0.15729 0.1246,1.06553 0.0506,2.01832 -0.0739,0.95279 -0.0619,1.90529 0.0267,2.11666 0.1985,0.47334 0.134,2.08489 -0.10764,2.68946 -0.10628,0.2659 -0.17369,-1.08195 -0.16664,-3.33193 z m 29.22795,1.87346 c 0.002,-0.58208 0.0427,-0.79509 0.0914,-0.47334 0.0486,0.32175 0.0473,0.798 -0.003,1.05833 -0.0502,0.26034 -0.09,-0.003 -0.0885,-0.58499 z m -5.95204,-0.71462 c -0.22521,-0.14276 -0.21101,-0.20634 0.0702,-0.31426 0.5252,-0.20153 1.79961,-0.16348 1.79961,0.0537 0,0.41292 -1.33582,0.59904 -1.86983,0.26053 z m 4.44527,-0.67029 c -0.27155,-0.11103 -0.7136,-0.1467 -0.98232,-0.0793 -0.26873,0.0674 -0.54503,0.0313 -0.614,-0.0803 -0.071,-0.11492 0.35493,-0.25238 0.98233,-0.31702 0.60925,-0.0628 1.3304,-0.18297 1.60257,-0.26713 0.43336,-0.13401 0.48596,-0.0902 0.42333,0.35278 -0.0799,0.56536 -0.61973,0.71481 -1.41191,0.39089 z m -26.75835,-0.14699 c -1.01969,-0.14668 -0.62544,-0.47894 0.5683,-0.47894 1.4982,0 2.15026,-0.26345 2.31933,-0.93707 0.18994,-0.7568 0.48971,-0.67997 0.86663,0.22213 0.26215,0.6274 0.37526,0.72118 0.62242,0.51605 0.233,-0.19337 0.50071,-0.19116 1.17094,0.01 0.47788,0.14318 0.79274,0.33647 0.69968,0.42953 -0.18212,0.18212 -5.28515,0.37707 -6.2473,0.23866 z m 28.23984,-1.53728 c -0.15523,-0.40746 -0.37004,-0.90702 -0.47735,-1.11014 -0.14203,-0.26883 -0.0827,-0.48173 0.21804,-0.78248 0.40977,-0.40977 0.41427,-0.40577 0.54824,0.4876 0.0743,0.49541 0.10318,1.1809 0.0642,1.5233 l -0.0709,0.62256 z m -27.76359,-1.69333 c 0,-0.11642 0.0952,-0.21167 0.21166,-0.21167 0.11642,0 0.21167,0.0952 0.21167,0.21167 0,0.11642 -0.0952,0.21167 -0.21167,0.21167 -0.11641,0 -0.21166,-0.0952 -0.21166,-0.21167 z m -1.46679,-2.451832 c 0.008,-0.57238 0.0972,-1.23119 0.19791,-1.46402 0.11331,-0.26208 0.13667,0.10073 0.0613,0.9525 -0.14779,1.67072 -0.27953,1.930672 -0.25924,0.51152 z m -0.0241,-3.94451 c -0.0681,-1.44918 -0.031,-1.9809 0.12542,-1.79916 0.13979,0.16242 0.17558,0.92444 0.0966,2.05715 l -0.12542,1.79916 z m 18.31837,0.43824 c -0.23283,-0.12661 -0.77967,-0.46945 -1.2152,-0.76187 -0.66174,-0.44431 -0.84593,-0.48681 -1.12088,-0.25862 -0.18096,0.15018 -0.28122,0.39762 -0.2228,0.54987 0.0584,0.15224 0.026,0.32641 -0.0721,0.38704 -0.19735,0.12197 -0.43077,-0.57859 -0.43526,-1.30631 -0.002,-0.25784 0.16396,-0.5581 0.36788,-0.66723 0.20392,-0.10914 2.1548,-0.18091 4.33529,-0.15949 4.35283,0.0427 4.86991,0.17446 4.02028,1.02409 -0.41908,0.41908 -0.53509,0.43926 -1.18156,0.20549 -0.78155,-0.28261 -1.40645,-0.15592 -1.40645,0.28514 0,0.83774 -1.98468,1.29162 -3.06916,0.70189 z m 10.91425,-0.54322 c -0.0148,-0.98248 -0.52497,-1.46525 -1.29141,-1.222 -0.2356,0.0748 -0.41534,0.034 -0.41534,-0.0941 0,-0.12427 0.36195,-0.22593 0.80434,-0.22593 0.44238,0 0.89482,-0.0896 1.00541,-0.19912 0.27498,-0.27229 0.36543,1.49764 0.10922,2.13712 -0.17235,0.43014 -0.20059,0.37745 -0.21222,-0.39597 z m -24.35508,-1.2069 c 0,-0.18432 0.15081,-0.33513 0.33514,-0.33513 0.18432,0 0.29743,0.11311 0.25135,0.25135 -0.13082,0.39248 -0.58649,0.45757 -0.58649,0.0838 z m 5.13291,0.15968 c -0.45078,-0.18189 -0.29136,-0.49481 0.2521,-0.49481 0.61785,0 0.88684,0.3268 0.41729,0.50698 -0.18347,0.0704 -0.34961,0.1205 -0.3692,0.11131 -0.0196,-0.009 -0.15466,-0.0648 -0.30019,-0.12348 z m 15.82209,-0.28315 c 0,-0.11641 0.0952,-0.21166 0.21167,-0.21166 0.11641,0 0.21166,0.0952 0.21166,0.21166 0,0.11642 -0.0952,0.21167 -0.21166,0.21167 -0.11642,0 -0.21167,-0.0952 -0.21167,-0.21167 z M 149.64,87.97603 c 0.0862,-0.22459 -0.0358,-0.36745 -0.3896,-0.45624 -0.53043,-0.13313 -0.72174,-0.5468 -0.25049,-0.54166 0.76903,0.008 1.20437,0.2747 1.13988,0.69726 -0.0371,0.24292 -0.19292,0.4835 -0.34633,0.53464 -0.18016,0.0601 -0.2345,-0.0228 -0.15346,-0.234 z m 3.32866,-0.57745 c 0,-0.11642 0.14287,-0.21167 0.3175,-0.21167 0.17462,0 0.3175,0.0952 0.3175,0.21167 0,0.11641 -0.14288,0.21166 -0.3175,0.21166 -0.17463,0 -0.3175,-0.0952 -0.3175,-0.21166 z m -6.50459,-5.82084 c -0.0258,-3.78362 0.12549,-4.65755 0.84584,-4.88618 0.23873,-0.0758 1.37596,-0.071 2.52718,0.0106 2.5625,0.18167 2.70823,0.0974 2.70823,-1.56574 0,-1.89237 0.085,-1.94463 3.50972,-2.15765 1.62037,-0.1008 4.99399,-0.12082 7.49695,-0.0445 2.50296,0.0763 5.5334,0.11664 6.73431,0.0896 2.52016,-0.0567 3.22779,0.20978 3.19494,1.2033 -0.0186,0.56167 -0.0244,0.55877 -0.21703,-0.10803 -0.26466,-0.91624 -0.64843,-0.98479 -4.02895,-0.7196 -2.4845,0.1949 -2.85826,0.18109 -3.18855,-0.11781 -0.32877,-0.29754 -0.64953,-0.31074 -2.64546,-0.10888 -1.28256,0.12972 -2.36726,0.15011 -2.4917,0.0468 -0.21806,-0.18097 -6.23336,0.25601 -7.3398,0.53321 -0.50268,0.12593 -0.57218,0.25799 -0.64797,1.23127 -0.11608,1.4905 -0.0419,1.61615 0.96911,1.64047 1.13927,0.0274 2.00764,0.26712 1.68656,0.46556 -0.13445,0.0831 -0.84786,0.2114 -1.58537,0.28512 -0.73751,0.0737 -1.59813,0.26362 -1.91249,0.42197 -0.78703,0.39645 -1.3556,0.36087 -2.02992,-0.12705 -0.31543,-0.22824 -1.05389,-0.47602 -1.64103,-0.55063 -1.49183,-0.18959 -1.61334,0.0139 -1.61361,2.70176 -1.1e-4,1.19882 -0.0691,2.89405 -0.15332,3.76718 -0.12399,1.28557 -0.15778,0.90313 -0.17764,-2.01084 z m 32.85672,-4.24128 c -0.17033,-0.26416 -0.74485,-0.3362 -2.96296,-0.37154 l -2.75167,-0.0438 -0.0696,-0.52917 c -0.0622,-0.47285 -0.0396,-0.49152 0.21167,-0.17544 0.22905,0.2881 0.76039,0.36665 2.8636,0.42334 2.50571,0.0675 3.17971,0.24586 2.99732,0.79303 -0.0463,0.13902 -0.16141,0.10056 -0.28839,-0.0964 z m -18.99671,-0.23807 c 0.14552,-0.0587 0.38364,-0.0587 0.52916,0 0.14552,0.0587 0.0265,0.10676 -0.26458,0.10676 -0.29104,0 -0.41011,-0.048 -0.26458,-0.10676 z m 11.30202,-0.94521 c -0.66328,-0.19447 -0.68768,-0.2329 -0.37041,-0.58348 0.1868,-0.20641 0.33964,-0.48921 0.33964,-0.62845 0,-0.13923 0.2591,-0.35166 0.57579,-0.47207 0.47365,-0.18008 0.6255,-0.15099 0.85599,0.16399 0.15411,0.2106 0.25219,0.66866 0.21796,1.01791 -0.0706,0.72017 -0.4616,0.84144 -1.61897,0.5021 z m -9.36516,-37.9006 c -0.21442,-0.40065 -0.17128,-0.52832 0.32186,-0.9525 0.5953,-0.51206 1.48068,-0.64926 1.71746,-0.26614 0.2678,0.43331 -0.0847,1.16573 -0.57897,1.20296 -0.26429,0.0199 -0.51369,0.13568 -0.55422,0.25727 -0.12683,0.38048 -0.6475,0.24166 -0.90613,-0.24159 z"
       id="path1" /><path
       style="fill:#ffffff;stroke-width:0.499186"
       d="m -40.366668,236.90495 c -0.08605,-0.57689 -0.265921,-3.01225 -0.329727,-4.46418 -0.138045,-3.1414 -0.488224,-6.52771 -0.698746,-6.75702 -0.219327,-0.23891 0.003,-1.43171 0.267025,-1.43171 0.264099,0 0.600456,-1.09362 0.747436,-2.43021 0.510223,-4.63968 0.404061,-10.67423 -0.232346,-13.20763 -0.19046,-0.75817 -0.803979,-2.0169 -1.277687,-2.62135 -0.434437,-0.55435 -0.565698,-0.83593 -0.69653,-1.49421 -0.134191,-0.67516 -0.232021,-0.74412 -1.432015,-1.00946 -1.578053,-0.34893 -4.540329,-1.6349 -6.075881,-2.63764 -0.292513,-0.19101 -0.935994,-0.60276 -1.429958,-0.91499 -2.275052,-1.43805 -3.387972,-2.43625 -7.660428,-6.87082 -0.697363,-0.72382 -1.529446,-1.55231 -1.84907,-1.84109 -0.891277,-0.80526 -1.974856,-2.05454 -2.719113,-3.13491 -0.86446,-1.25485 -1.130347,-1.77572 -1.514111,-2.96612 -0.171985,-0.53348 -0.354887,-1.06505 -0.406448,-1.18128 -0.05156,-0.11622 -0.15323,-0.37773 -0.225926,-0.58113 -0.0727,-0.2034 -0.193021,-0.51246 -0.267394,-0.6868 -0.07437,-0.17434 -0.281761,-0.67617 -0.460874,-1.11517 -0.325514,-0.79786 -1.474666,-2.72936 -2.241266,-3.76714 -0.223536,-0.30262 -0.406433,-0.5799 -0.406433,-0.61619 0,-0.0363 -0.162161,-0.26416 -0.360357,-0.5064 -0.603946,-0.73814 -1.243304,-2.02069 -1.205141,-2.41752 0.03889,-0.40426 -0.06835,-0.39285 2.463619,-0.26216 1.544637,0.0797 2.227738,0.17382 2.727648,0.37572 0.163599,0.0661 0.457964,0.12013 0.654149,0.12013 0.196185,0 0.386086,0.0476 0.422002,0.10566 0.03589,0.0581 0.183256,0.10566 0.327426,0.10566 0.278177,0 1.032392,0.34238 1.330077,0.6038 0.09803,0.0861 0.223406,0.12862 0.278596,0.0945 0.05519,-0.0341 0.158666,0.008 0.22995,0.0941 0.07128,0.0859 0.175569,0.12777 0.231742,0.093 0.05617,-0.0347 0.172349,0.0371 0.258169,0.15966 0.08582,0.12252 0.23655,0.22383 0.334954,0.22512 0.0984,10e-4 0.297785,0.0953 0.443068,0.20897 0.145283,0.11364 0.329408,0.20769 0.409168,0.20898 0.120209,0.002 0.121302,0.0309 0.0064,0.16938 -0.123584,0.14891 -0.09596,0.15903 0.254505,0.0933 0.324551,-0.0609 0.426974,-0.0348 0.587142,0.14995 0.106707,0.12303 0.238931,0.22369 0.293826,0.22369 0.218959,0 0.605309,0.68526 0.576286,1.02214 -0.02446,0.2841 0.02251,0.36496 0.293581,0.50513 0.303096,0.15674 0.335533,0.15407 0.533436,-0.0438 0.216991,-0.21699 0.397163,-0.20196 0.793736,0.0662 0.114628,0.0775 0.271947,0.14093 0.349595,0.14093 0.07765,0 0.316694,0.13782 0.531209,0.30627 0.214521,0.16845 0.497015,0.33807 0.627772,0.37694 0.130757,0.0388 0.237737,0.14509 0.237737,0.23605 0,0.16804 0.381094,0.55999 0.544473,0.55999 0.04922,0 0.08949,0.0713 0.08949,0.1585 0,0.0872 0.07132,0.15849 0.158491,0.15849 0.08717,0 0.158492,0.0713 0.158492,0.15849 0,0.0872 0.08773,0.15849 0.194947,0.15849 0.10722,0 0.272985,0.0862 0.36837,0.19163 0.138424,0.15296 0.14706,0.21976 0.04278,0.33096 -0.106861,0.11397 -0.07295,0.12866 0.186351,0.0807 0.254041,-0.0469 0.378179,0.002 0.625161,0.25017 0.173432,0.17376 0.421633,0.30877 0.56766,0.30877 0.218668,0 0.23879,0.0249 0.127941,0.15849 -0.103321,0.12449 -0.103671,0.15849 -0.0015,0.15849 0.07703,0 0.102817,0.0706 0.06335,0.17343 -0.05047,0.13152 -0.03404,0.14647 0.06794,0.0619 0.100451,-0.0833 0.28829,0.0282 0.742045,0.44059 0.634795,0.57691 0.712543,0.6977 0.449063,0.6977 -0.225488,0 -0.197368,0.0982 0.109531,0.38266 0.223336,0.20698 0.278371,0.22146 0.330042,0.0868 0.05454,-0.14213 0.0859,-0.13998 0.260276,0.0178 0.109047,0.0987 0.198267,0.24338 0.198267,0.32155 0,0.0782 0.09556,0.14211 0.212358,0.14211 0.116795,0 0.293777,0.0951 0.393294,0.21133 0.09952,0.11622 0.241696,0.21132 0.31595,0.21132 0.07425,0 0.13501,0.0896 0.13501,0.19924 0,0.1824 0.127787,0.48475 0.353364,0.83608 0.07027,0.10944 0.11999,0.11074 0.245725,0.006 0.136976,-0.11368 0.147604,-0.0763 0.08111,0.28544 -0.04208,0.22894 -0.117254,0.43211 -0.167037,0.45148 -0.04977,0.0194 -0.09051,0.10773 -0.09051,0.19636 0,0.11648 0.06897,0.14383 0.248825,0.0987 0.187973,-0.0472 0.278545,-0.005 0.370371,0.17345 0.102418,0.19879 0.113525,0.20266 0.07057,0.0246 -0.02806,-0.11622 -0.01123,-0.27461 0.03739,-0.35197 0.05951,-0.0947 0.110894,1.8e-4 0.157328,0.29056 0.05428,0.33942 0.114389,0.43123 0.282345,0.43123 0.117368,0 0.244461,0.0832 0.282434,0.1849 0.118647,0.31776 0.684594,1.21568 1.164088,1.84693 0.646481,0.85108 1.18078,1.83023 1.347049,2.46857 0.078,0.29946 0.189351,0.63373 0.247442,0.74281 0.127846,0.24007 0.761119,1.59434 1.065842,2.27934 0.121377,0.27286 0.220685,0.56052 0.220685,0.63925 0,0.0787 0.04238,0.18833 0.09422,0.24354 0.09938,0.10588 0.820937,2.16475 0.979439,2.79473 0.195965,0.77886 0.406762,2.31917 0.473917,3.46294 0.06196,1.05532 0.09908,1.22408 0.32536,1.47925 0.6472,0.72985 0.855206,1.11002 1.507617,2.75549 0.38358,0.96745 0.753666,1.75899 0.822409,1.75899 0.252564,0 0.551786,-0.81228 0.551786,-1.4979 0,-0.59685 0.160992,-1.31024 0.424987,-1.88325 0.05355,-0.11623 0.280882,-0.63926 0.505182,-1.16228 0.502331,-1.17132 1.173996,-2.2596 1.926359,-3.12121 0.314532,-0.3602 0.73955,-0.87915 0.944481,-1.15323 0.539984,-0.72215 2.342591,-2.54802 3.383948,-3.42761 0.493965,-0.41723 1.326043,-1.0179 1.849066,-1.33482 0.523022,-0.31691 1.236234,-0.78405 1.584916,-1.03807 0.673522,-0.49069 2.718803,-1.54529 4.120782,-2.12479 1.100177,-0.45474 1.155786,-0.47502 1.9019,-0.69362 0.348681,-0.10216 0.824156,-0.27289 1.056612,-0.37941 0.513154,-0.23514 1.059962,-0.41218 2.377375,-0.76975 0.55208,-0.14984 1.43497,-0.39009 1.961976,-0.53388 0.745884,-0.2035 1.436543,-0.2891 3.117004,-0.38632 2.135324,-0.12353 2.176612,-0.12185 3.7965515,0.15495 0.900761,0.15392 1.74179,0.27974 1.868958,0.2796 0.241696,-2.5e-4 1.910001,0.50379 2.093332,0.63245 0.05811,0.0408 0.342861,0.13843 0.632769,0.217 0.289907,0.0786 0.884253,0.31914 1.320762,0.5346 1.740953,0.85934 2.643756,1.24204 3.82439599,1.62115 1.69253601,0.54348 2.00100801,0.92475 0.97124201,1.20043 -2.255229,0.60377 -3.513552,1.2598 -5.091002,2.65419 -0.366507,0.32398 -0.865758,0.74742 -1.109441,0.94099 -0.670317,0.53245 -1.198312,0.96434 -1.468157,1.20092 -0.34353,0.30117 -1.015379,0.73615 -1.510777,0.97812 -0.483651,0.23623 -1.304094,0.79546 -1.8589145,1.26708 -0.597876,0.50821 -0.745091,0.61685 -1.363747,1.00644 -0.319624,0.20128 -0.604909,0.3955 -0.633967,0.43159 -0.02905,0.0361 -0.320228,0.25163 -0.647045,0.47895 -0.326822,0.22732 -0.907021,0.63995 -1.289338,0.91696 -0.382312,0.277 -1.20851,0.77151 -1.835987,1.09889 -0.627477,0.3274 -1.212189,0.65449 -1.299362,0.72688 -0.986911,0.81959 -2.722262,1.77193 -4.807578,2.63834 -0.523022,0.2173 -1.378877,0.60785 -1.901899,0.86788 -1.06417,0.52906 -1.351262,0.63271 -2.115976,0.76393 -0.292083,0.0501 -0.791335,0.2068 -1.109441,0.34818 -0.318111,0.14138 -0.721025,0.3065 -0.895365,0.36695 -0.295848,0.10257 -0.485474,0.15493 -1.584917,0.43769 -1.728986,0.44466 -2.777756,0.52867 -4.055768,0.32488 -1.353898,-0.21589 -2.264853,-0.53972 -3.154557,-1.12139 -0.304524,-0.19909 -0.718918,-0.43102 -0.920879,-0.51541 -0.455373,-0.19026 -0.476079,-0.15977 -0.790477,1.16401 -0.159899,0.67327 -0.254639,1.57314 -0.328105,3.11638 -0.05681,1.19338 -0.152955,2.7879 -0.213651,3.54338 -0.0607,0.75548 -0.156066,1.94416 -0.21193,2.64153 -0.27595,3.44459 -0.23002,9.04465 0.11352,13.8416 0.05411,0.75548 0.129359,1.88473 0.167227,2.50945 l 0.06886,1.13586 h -0.747461 -0.747462 z m 8.864345,-32.83418 c 0.03594,-0.0581 -0.006,-0.10566 -0.09319,-0.10566 -0.08717,0 -0.187879,0.0476 -0.223795,0.10566 -0.03594,0.0581 0.006,0.10566 0.09319,0.10566 0.08717,0 0.187878,-0.0476 0.223795,-0.10566 z m 0.99676,-0.5441 c 0.29443,-0.18302 0.535327,-0.37489 0.535327,-0.42636 0,-0.10744 -0.402249,0.0897 -0.612921,0.30035 -0.07799,0.078 -0.209728,0.14181 -0.292747,0.14181 -0.08302,0 -0.150944,0.0442 -0.150944,0.0983 0,0.0541 -0.106981,0.11892 -0.237738,0.1441 -0.236514,0.0456 -0.236549,0.0459 -0.007,0.0602 0.126893,0.008 0.471611,-0.13536 0.766041,-0.31839 z m 1.54871,-0.88232 c 0.145288,-0.14529 0.354283,-0.26416 0.464438,-0.26416 0.110155,0 0.229671,-0.0475 0.265587,-0.10566 0.13174,-0.21316 -0.412827,-0.0979 -0.749019,0.1585 -0.190479,0.14528 -0.397043,0.26415 -0.459037,0.26415 -0.06199,0 -0.112706,0.0475 -0.112706,0.10566 0,0.19506 0.324162,0.10809 0.590737,-0.15849 z m 1.231917,-0.65112 c -0.07265,-0.0293 -0.191513,-0.0293 -0.264155,0 -0.07264,0.0293 -0.01323,0.0533 0.132075,0.0533 0.145283,0 0.204721,-0.024 0.13208,-0.0533 z m 0.569337,-0.29983 c 0.03345,-0.0872 0.127702,-0.1585 0.209443,-0.1585 0.08174,0 0.231183,-0.0395 0.332094,-0.0878 0.801284,-0.38338 1.950475,-0.99041 2.032621,-1.07368 0.119156,-0.12079 0.767144,-0.42345 0.906602,-0.42345 0.08246,0 0.14993,-0.0475 0.14993,-0.10566 0,-0.0581 -0.04423,-0.10566 -0.09829,-0.10566 -0.09457,0 -1.266021,0.53966 -1.592289,0.73352 -0.08717,0.0518 -0.32491,0.17245 -0.528304,0.26811 -0.498991,0.23469 -1.76323,0.9377 -1.859603,1.03407 -0.04263,0.0426 0.02701,0.0775 0.154727,0.0775 0.127737,0 0.259617,-0.0713 0.293068,-0.15849 z m 4.301182,-2.12831 c 0.609906,-0.31765 0.699171,-0.35473 0.853923,-0.35473 0.165805,0 0.327781,-0.19058 0.238152,-0.28021 -0.03015,-0.0302 -0.236993,0.0252 -0.459641,0.12297 -0.222647,0.0978 -0.582565,0.25638 -0.799826,0.35243 -0.381473,0.16864 -0.520546,0.33312 -0.281665,0.33312 0.06368,0 0.265751,-0.0781 0.449057,-0.17358 z m 1.759712,-0.76272 c 0,-0.05 -0.118871,-0.0683 -0.264155,-0.0405 -0.145283,0.0278 -0.264149,0.0687 -0.264149,0.091 0,0.0223 0.118866,0.0405 0.264149,0.0405 0.145284,0 0.264155,-0.0409 0.264155,-0.091 z m 0.422646,-0.22598 c 0,-0.0581 -0.07132,-0.10565 -0.158492,-0.10565 -0.08717,0 -0.158491,0.0475 -0.158491,0.10565 0,0.0581 0.07132,0.10567 0.158491,0.10567 0.08717,0 0.158492,-0.0475 0.158492,-0.10567 z m 2.401585,-1.12045 c -0.03509,-0.0351 -0.126244,-0.0388 -0.202515,-0.008 -0.08429,0.0337 -0.05925,0.0588 0.06384,0.0638 0.111383,0.004 0.173791,-0.0204 0.138679,-0.0555 z m -31.599731,-10.95132 c -0.0293,-0.0727 -0.05329,-0.0132 -0.05329,0.13207 0,0.14529 0.02396,0.20472 0.05329,0.13208 0.0293,-0.0726 0.0293,-0.19151 0,-0.26415 z m 0.880974,-0.0793 c 0,-0.11623 -0.04248,-0.21132 -0.09436,-0.21132 -0.118766,0 -0.22955,0.27483 -0.144908,0.35948 0.127192,0.12719 0.239265,0.0578 0.239265,-0.14816 z m 0.529921,0.3434 c 9.98e-4,-0.0436 0.04772,-0.15057 0.104045,-0.23774 0.08282,-0.12816 0.102733,-0.113 0.104041,0.0793 9.98e-4,0.13075 -0.04593,0.23773 -0.104041,0.23773 -0.05811,0 -0.104934,-0.0356 -0.104045,-0.0792 z"
       id="path2" /><path
       style="fill:#ffffff;stroke-width:0.590155"
       d="m -41.422996,239.02037 c 0,-0.0388 0.77733,-2.44538 1.72742,-5.34797 3.36223,-10.27197 3.89481,-11.90306 6.00581,-18.39364 1.17313,-3.60695 2.7187,-8.34986 3.43461,-10.5398 0.7159,-2.18993 2.36618,-7.24904 3.66728,-11.24245 1.30111,-3.99342 2.52909,-7.75261 2.72886,-8.35377 0.19976,-0.60116 1.22041,-3.72796 2.26809,-6.94846 1.04769,-3.2205 2.02897,-6.06624 2.18063,-6.32388 0.15166,-0.25764 0.57934,-1.06569 0.95039,-1.79567 0.37106,-0.72998 1.00093,-1.92449 1.39971,-2.65447 0.63524,-1.16284 2.09149,-3.9155 3.11006,-5.87878 0.18489,-0.35636 2.10159,-2.49946 4.2593499,-4.76243 2.15776,-2.26298 5.15819,-5.41264 6.66763,-6.99925 1.50942,-1.58661 3.44707,-3.62301 4.30587,-4.52533 0.8588,-0.90232 2.3313,-2.44993 3.27224,-3.43913 0.94094,-0.98921 2.27893,-2.39581 2.97331,-3.12579 0.69438,-0.72998 3.3975201,-3.57573 6.0069701,-6.32388 2.60946,-2.74816 5.45226,-5.73786 6.31734,-6.64378 0.86508,-0.90592 2.20525,-2.31313 2.97817,-3.12714 5.8162,-6.12536 6.99755,-7.36812 7.96842,-8.38266 l 1.09804,-1.14741 4.99163,-1.48076 c 2.74539,-0.81442 6.11587,-1.82142 7.48995,-2.23778 1.37407,-0.41636 4.04415,-1.21748 5.93351,-1.78027 11.90334,-3.54569 24.61534,-7.34201 37.24063,-11.121568 3.64989,-1.09265 6.9875,-2.09048 7.4169,-2.21739 0.4294,-0.12692 2.96372,-0.88429 5.631826,-1.68305 l 4.85111,-1.45228 2.48772,0.75268 c 1.36824,0.41397 5.79018,1.73802 9.82653,2.94234 4.03636,1.20431 10.39537,3.10321 14.13115,4.21976 3.73577,1.116558 9.53266,2.844848 12.88197,3.840658 3.34932,0.99581 6.40586,1.9087 6.79232,2.02865 0.38646,0.11995 3.09168,0.93109 6.01159,1.80254 21.83459,6.51649 21.5362,6.42598 21.62611,6.55978 0.0808,0.1203 4.28499,4.56654 5.38701,5.69721 0.97022,0.99544 3.49808,3.64893 6.32388,6.63815 1.41701,1.49898 3.24862,3.42967 4.07023,4.29043 3.14411,3.29391 4.33277,4.54572 4.69219,4.94142 0.36891,0.40616 4.25086,4.48587 7.55475,7.93961 0.94467,0.98752 1.823,1.90592 1.95181,2.04087 0.12882,0.13497 1.3936,1.46917 2.81062,2.96491 4.78564,5.05148 7.68632,8.09187 10.32253,10.81968 2.01797,2.08809 2.33661,2.55124 4.15497,6.03938 0.55961,1.0735 1.31822,2.51394 1.68579,3.20097 2.22429,4.15745 2.57413,4.82221 2.57413,4.89138 0,0.0735 3.37635,10.458 4.45104,13.6899 0.28557,0.8588 1.40911,4.3018 2.49676,7.65112 1.75253,5.3968 3.21282,9.87802 7.73423,23.73407 0.67257,2.06111 2.28653,7.01482 3.58657,11.00823 1.30004,3.99341 2.56975,7.89332 2.82157,8.66644 0.25182,0.77313 0.45787,1.45822 0.45787,1.52242 0,0.0642 -66.08455,0.11672 -146.85455,0.11672 -80.769996,0 -146.854546,-0.0318 -146.854546,-0.0705 z m 103.28131,-1.88462 c 0.67825,-0.20574 5.96953,-0.23373 43.564506,-0.23042 37.40919,0.004 42.88894,0.033 43.55902,0.23587 0.42158,0.12766 0.85064,0.23211 0.95348,0.23211 0.11728,0 0.22392,-0.39747 0.28607,-1.06624 0.10631,-1.14382 -0.26204,-0.32644 5.3527,-11.8776 0.97665,-2.00927 1.77573,-3.67807 1.77573,-3.70846 0,-0.0304 -0.42159,-0.0552 -0.93687,-0.0552 h -0.93687 v -11.55475 -11.55474 h 2.40007 2.40008 l 0.10608,1.13205 c 0.16979,1.81201 0.13272,1.78469 1.20774,0.89005 1.74348,-1.45094 4.39907,-2.49033 6.36358,-2.4907 l 0.87286,-1.6e-4 3.03748,-6.28468 c 1.67062,-3.45658 4.14747,-8.5596 5.50412,-11.34005 1.35665,-2.78045 2.46664,-5.11535 2.46664,-5.18866 0,-0.0733 0.28641,-0.2794 0.63648,-0.45799 l 0.63648,-0.32471 -0.27746,-0.42015 c -0.65319,-0.98914 -1.48945,-2.44104 -2.64729,-4.59623 l -1.2369,-2.30233 -0.0413,4.76161 -0.0413,4.76162 h -2.80835 -2.80836 v -10.09118 -10.09117 l -0.60401,-1.11224 c -1.68058,-3.09466 -3.96748,-7.33856 -6.11062,-11.33975 -1.31098,-2.44757 -2.61101,-4.87173 -2.88895,-5.387 -0.27793,-0.51528 -1.05126,-1.95572 -1.71849,-3.20099 -1.42242,-2.65465 -4.26632,-7.94797 -4.99152,-9.29064 -2.824,-5.22847 -4.54406,-8.50951 -4.70221,-8.96951 l -0.19091,-0.55534 -44.57698,-0.0393 -44.576966,-0.0393 -0.10658,0.42967 c -0.0878,0.35407 -5.31288,10.2084 -9.3764,17.68371 -0.53687,0.98762 -2.0486,3.79824 -3.35942,6.24581 -1.31081,2.44758 -2.61165,4.87173 -2.89074,5.38702 -0.51248,0.94615 -4.69443,8.73804 -5.06137,9.43044 -0.15943,0.30083 -0.0191,0.23785 0.71725,-0.32188 1.27875,-0.97205 1.83574,-1.28263 3.17959,-1.77291 1.58419,-0.57798 4.63469,-0.72393 6.50075,-0.31103 3.32158,0.73497 5.80326,2.66298 7.23792,5.62312 0.91937,1.89696 1.11532,2.80299 1.20723,5.5822 l 0.0814,2.45928 h -8.54805 -8.54809 l 0.0984,0.49198 c 0.18166,0.90835 0.791,1.92172 1.69788,2.82372 1.0553,1.04961 1.75109,1.43628 3.19703,1.77663 2.07414,0.48823 4.29408,0.0634 6.15192,-1.17718 0.52239,-0.34884 1.00592,-0.59957 1.07451,-0.55717 0.0686,0.0424 0.67555,0.89379 1.3488,1.89199 l 1.22407,1.81492 -0.66852,0.57578 c -0.96945,0.83494 -2.56128,1.64667 -4.16983,2.12634 -1.19803,0.35724 -1.70472,0.42053 -3.4352,0.42906 -2.27002,0.0111 -3.48988,-0.21815 -5.1399,-0.96631 -4.58966,-2.08105 -7.2171,-6.63756 -6.91398,-11.99026 0.0514,-0.90649 0.0532,-1.60802 0.004,-1.55893 -0.0491,0.0491 -0.95906,1.71646 -2.02217,3.70528 l -1.93292,3.61605 v 1.92464 1.92465 l -0.81976,0.50141 -0.81976,0.50141 1.2063,2.43591 c 1.35637,2.73891 6.86895,14.08753 8.23706,16.95742 0.49128,1.03056 1.15106,2.40606 1.46619,3.05668 l 0.57294,1.18293 1.05107,-0.22161 c 1.4448,-0.30462 4.26037,-0.17172 5.81299,0.27439 3.6922,1.06087 6.79676,4.01156 8.06859,7.66871 0.84444,2.42818 0.84354,5.67453 -0.002,8.00455 -0.77204,2.12694 -2.32968,4.32556 -3.87428,5.46857 l -0.57083,0.42242 1.72102,3.54499 c 0.94656,1.94975 2.31884,4.77464 3.04952,6.27754 3.15486,6.48908 3.16343,6.50944 3.16343,7.50871 0,1.03768 5.5e-4,1.038 1.16237,0.68557 z m 74.021546,-16.06641 c -3.4918,-0.80878 -6.36982,-2.97467 -8.10949,-6.10287 -1.74751,-3.1423 -1.87328,-7.37876 -0.32042,-10.79305 2.1178,-4.65644 6.51045,-7.29943 11.70087,-7.04022 2.04108,0.10193 3.1563,0.3779 4.84859,1.19984 3.06651,1.48938 5.51445,4.46648 6.42282,7.81123 0.42143,1.55177 0.38827,4.70042 -0.0663,6.29132 -1.17002,4.09527 -4.09794,7.07771 -8.23032,8.38359 -1.40658,0.4445 -4.81705,0.5811 -6.2458,0.25016 z m 5.46508,-5.64722 c 1.26088,-0.61208 2.55188,-1.9151 3.19331,-3.22302 0.42756,-0.87181 0.52805,-1.28209 0.59278,-2.42025 0.17533,-3.08282 -1.12568,-5.45695 -3.68297,-6.72083 -1.14784,-0.5673 -1.22697,-0.58316 -2.90891,-0.58316 -1.63345,0 -1.78569,0.0279 -2.75502,0.50511 -5.51275,2.71392 -4.95516,10.85219 0.87645,12.79225 0.40577,0.13498 1.17163,0.18972 2.18604,0.15624 1.34403,-0.0444 1.6919,-0.11487 2.49832,-0.50634 z m -60.662406,5.60421 c -2.57462,-0.43098 -5.07279,-2.27643 -6.1248,-4.52452 -0.97152,-2.07608 -0.95409,-1.89135 -1.0175,-10.78694 l -0.0581,-8.15859 h 2.81951 2.8195 v 7.01263 c 0,6.45706 0.0236,7.08832 0.29741,7.96818 0.45127,1.44994 1.20778,2.3537 2.51321,3.00236 0.57416,0.28531 0.97389,0.3505 2.18602,0.35652 1.2809,0.006 1.60159,-0.0481 2.34931,-0.39878 1.5968,-0.74896 2.86615,-2.21952 3.24708,-3.76181 0.12307,-0.49827 0.18099,-2.88414 0.18099,-7.45593 v -6.72317 h 2.81061 2.81062 v 11.55474 11.55475 h -2.40288 -2.40287 l -0.0872,-0.50747 c -0.048,-0.27911 -0.13414,-0.9115 -0.19152,-1.4053 -0.0574,-0.49382 -0.14892,-0.89531 -0.20344,-0.89221 -0.0545,0.003 -0.48557,0.36056 -0.95791,0.79436 -0.99342,0.91235 -2.91029,1.89272 -4.37207,2.23605 -0.93248,0.21902 -3.26764,0.29387 -4.21592,0.13513 z m -18.11284,-16.91778 v -16.55721 l 2.73114,0.0189 2.73113,0.019 0.0404,16.53827 0.0404,16.53828 -2.77158,-10e-6 -2.77158,-1e-5 z m 39.660876,7.57887 v -8.97834 h -1.63952 -1.639526 v -2.5764 -2.5764 h 1.639526 1.63952 v -2.77631 -2.77631 l 2.53736,-0.59163 c 1.39555,-0.32539 2.66032,-0.62662 2.81061,-0.6694 0.25434,-0.0724 0.27326,0.16058 0.27326,3.36407 v 3.44185 l 2.53736,0.0429 2.53735,0.0429 0.0429,2.53736 0.0429,2.53736 h -2.58026 -2.58026 v 8.97834 8.97835 h -2.81062 -2.81061 z m 13.89692,-2.5764 v -11.55474 h 2.81061 2.81062 v 11.55474 11.55475 h -2.81062 -2.81061 z m 1.84572,-15.67271 c -1.57768,-0.43232 -2.50153,-1.63034 -2.50153,-3.24391 0,-2.15084 1.9468,-3.65571 4.18768,-3.23707 1.37024,0.25599 2.38639,1.23389 2.68692,2.58579 0.54314,2.44319 -1.86008,4.58379 -4.37307,3.89519 z M 72.019984,176.07848 c -3.09118,-0.58464 -5.96363,-2.46182 -7.71625,-5.04266 -3.67415,-5.41043 -2.28186,-13.16936 3.00936,-16.77047 2.21776,-1.50937 4.45064,-2.18111 7.20171,-2.16655 7.09973,0.0375 12.38583,5.6185 12.06408,12.73698 -0.24384,5.39488 -3.7728,9.67028 -9.17309,11.11339 -1.29246,0.34538 -3.91098,0.40825 -5.38581,0.12931 z m 4.05627,-5.27913 c 1.89716,-0.50678 3.48856,-1.84609 4.33539,-3.64862 0.43399,-0.92376 0.50455,-1.2586 0.55724,-2.64421 0.0905,-2.37938 -0.46663,-3.82038 -2.0594,-5.32675 -2.08369,-1.97067 -4.84522,-2.41303 -7.3757,-1.18149 -3.24222,1.57793 -4.66737,5.90089 -3.05467,9.26584 0.7444,1.55322 2.42448,2.97761 4.16195,3.52855 0.82764,0.26243 2.46583,0.26561 3.43519,0.007 z m 56.768896,5.36972 c -4.42496,-0.69741 -8.1347,-3.8352 -9.45522,-7.99749 -2.21137,-6.97018 1.62929,-14.44197 8.13154,-15.81946 1.39607,-0.29576 3.96174,-0.29681 5.36233,-0.002 3.85241,0.81039 6.68709,3.38158 7.87527,7.14327 0.62948,1.99285 0.90441,4.64236 0.62613,6.0338 l -0.0976,0.48795 h -8.4904 c -6.78816,0 -8.49039,0.04 -8.49039,0.19959 0,0.10977 0.24314,0.70694 0.54032,1.32705 1.90871,3.98282 7.02372,4.99585 10.97512,2.17364 0.36485,-0.26059 0.68389,-0.4444 0.70898,-0.40848 0.0251,0.0359 0.22602,0.31126 0.44652,0.61183 0.22051,0.30058 0.80567,1.14111 1.30035,1.86784 l 0.89941,1.32134 -0.604,0.52017 c -0.81885,0.7052 -3.48353,1.97709 -4.80605,2.294 -1.29115,0.3094 -3.74547,0.43263 -4.92232,0.24714 z m 7.12177,-14.61906 c 0.0497,-0.1295 -0.16559,-0.75332 -0.47842,-1.38628 -1.0585,-2.14174 -2.79585,-3.2052 -5.23627,-3.2052 -1.89227,0 -3.50305,0.7369 -4.63776,2.12167 -0.57137,0.69728 -1.3489,2.36963 -1.20784,2.59787 0.0431,0.0697 2.64142,0.12235 5.77412,0.11704 4.92615,-0.008 5.70803,-0.0415 5.78617,-0.2451 z m 16.01014,14.60333 c -1.51138,-0.19629 -3.37656,-0.72365 -4.77535,-1.35018 -1.34801,-0.60378 -3.4227,-1.88015 -3.34509,-2.05794 0.16138,-0.36966 2.52863,-3.7635 2.6251,-3.7635 0.0652,0 0.70623,0.30901 1.42443,0.68669 0.71821,0.37769 1.86795,0.88516 2.55499,1.12772 1.12127,0.39586 1.45698,0.44146 3.27905,0.44535 1.88047,0.004 2.08129,-0.0244 2.72827,-0.38672 0.38412,-0.21507 0.7871,-0.56641 0.89553,-0.78072 0.30714,-0.60707 0.24977,-1.61374 -0.11864,-2.0821 -0.45845,-0.58283 -2.00112,-1.26943 -4.22866,-1.88205 -1.06203,-0.29208 -2.29594,-0.67062 -2.74202,-0.84119 -2.2546,-0.86213 -4.13561,-2.38255 -4.87204,-3.9381 -0.35364,-0.747 -0.40658,-1.06207 -0.40658,-2.42025 0,-1.38316 0.0499,-1.66843 0.43733,-2.49832 1.10718,-2.37188 3.61978,-3.89282 7.09922,-4.29733 1.7817,-0.20714 3.48166,-0.0572 5.48554,0.48386 1.23135,0.33246 4.23172,1.71929 4.5504,2.10328 0.15766,0.18997 -0.0358,0.57338 -1.10039,2.18047 -0.71042,1.07248 -1.31023,1.94997 -1.33289,1.94997 -0.0227,0 -0.62764,-0.27958 -1.3444,-0.62129 -1.86545,-0.88936 -3.04682,-1.17124 -4.89453,-1.16786 -1.31002,0.002 -1.66779,0.0589 -2.22185,0.35102 -1.24308,0.65537 -1.49581,2.01186 -0.52422,2.81368 0.54361,0.44862 1.92751,0.98482 4.30752,1.66898 4.89405,1.40684 6.98051,2.89689 7.64425,5.45915 0.94647,3.65365 -1.12918,7.06933 -5.06785,8.33961 -1.85877,0.59947 -3.88781,0.75952 -6.05712,0.47777 z M 91.924994,160.15951 v -15.53644 h 6.03058 c 6.587736,0 8.312466,0.14431 10.520806,0.88031 4.86295,1.62072 8.57623,5.29479 10.12769,10.02078 0.52093,1.58683 0.69417,3.136 0.60071,5.37164 -0.16844,4.02908 -1.47148,7.06236 -4.24838,9.88964 -2.07988,2.11763 -4.18226,3.37941 -6.98217,4.1905 -2.08273,0.60333 -3.70407,0.71911 -10.076686,0.71958 l -5.97255,4.4e-4 z m 14.000176,9.55658 c 4.51665,-1.29109 7.28001,-4.92171 7.27321,-9.55581 -0.003,-1.90021 -0.18487,-2.72542 -0.97196,-4.40501 -0.81386,-1.73673 -2.52095,-3.48032 -4.22194,-4.31218 -1.97991,-0.96828 -2.75531,-1.09805 -6.63271,-1.11007 l -3.435186,-0.0107 -0.0405,9.681 c -0.0223,5.32455 -0.004,9.77776 0.0418,9.89603 0.11657,0.30481 6.817726,0.15103 7.987316,-0.18331 z M -13.492626,203.7318 c -0.0234,-18.21081 -0.0835,-33.32135 -0.13355,-33.579 l -0.0911,-0.46843 -0.25716,0.39036 c -0.14144,0.2147 -0.74853,1.72541 -1.34908,3.35712 -0.60056,1.63172 -1.69929,4.618 -2.44163,6.63617 -0.74235,2.01818 -1.55361,4.1964 -1.8028,4.8405 -0.24919,0.6441 -2.71304,7.28418 -5.47522,14.75572 -2.76218,7.47155 -5.65108,15.271 -6.41978,17.33212 -0.7687,2.06111 -1.5612,4.20421 -1.76111,4.76242 -0.19991,0.55823 -1.25231,3.40397 -2.33866,6.32389 -1.08634,2.91991 -2.2476,6.06356 -2.58056,6.98587 l -0.60539,1.67695 6.8995,0.0407 c 3.79472,0.0224 9.48688,0.0441 12.64925,0.0485 l 5.74977,0.008 z m 234.272366,32.8669 c -0.0398,-0.17234 -1.76239,-2.9414 -3.9378,-6.33 -0.4962,-0.77292 -2.99205,-4.70778 -5.54633,-8.74413 -2.55429,-4.03635 -4.86846,-7.69015 -5.14259,-8.11955 -0.27414,-0.4294 -1.44203,-2.27043 -2.59531,-4.09119 -1.15328,-1.82075 -2.46647,-3.89358 -2.9182,-4.60628 -0.45173,-0.7127 -1.08411,-1.73364 -1.40531,-2.26874 -0.32118,-0.5351 -0.62309,-0.97426 -0.6709,-0.97591 -0.0478,-0.002 -0.43426,0.52559 -0.85879,1.17163 -0.51199,0.77912 -0.85074,1.15148 -1.0061,1.10592 -0.12882,-0.0378 -0.79635,-0.31751 -1.48338,-0.62164 -1.75472,-0.77675 -3.07234,-1.09402 -4.54415,-1.09422 -2.15682,-2.8e-4 -3.34118,0.68836 -3.34118,1.94273 0,1.21936 0.98703,1.82721 4.68435,2.8848 3.23728,0.926 4.67832,1.56731 5.96564,2.65491 3.29021,2.77975 2.55725,8.09153 -1.43743,10.417 -0.38646,0.22497 -1.26477,0.60441 -1.95181,0.8432 -1.1745,0.40821 -1.40316,0.43379 -3.82556,0.42793 -2.28134,-0.005 -2.75254,-0.0535 -4.11453,-0.41895 -0.84598,-0.227 -2.04049,-0.64003 -2.65447,-0.91786 -1.34101,-0.6068 -3.3806,-1.8635 -3.37787,-2.08126 0.002,-0.14105 2.18534,-3.39883 2.49917,-3.72864 0.0738,-0.0776 0.46202,0.0666 0.89254,0.3315 1.16411,0.71629 3.53049,1.60819 4.94167,1.86256 1.84022,0.3317 3.64665,0.1045 4.55884,-0.57339 0.92272,-0.6857 1.11882,-1.83783 0.44842,-2.63456 -0.62753,-0.74577 -1.49077,-1.0994 -5.60918,-2.29776 -2.89581,-0.84262 -5.24293,-2.44637 -6.12499,-4.18511 -1.13929,-2.24578 -0.63899,-5.11008 1.21669,-6.96576 0.9912,-0.99121 2.9421,-1.95972 4.56587,-2.2667 2.36908,-0.4479 5.22316,-0.24098 7.50505,0.54411 0.48071,0.16539 0.87402,0.25739 0.87402,0.20446 0,-0.0983 -1.14133,-1.93182 -3.28291,-5.27394 -0.66036,-1.03056 -1.61473,-2.52775 -2.12082,-3.32708 -0.50608,-0.79933 -1.02555,-1.61874 -1.15437,-1.82091 -0.12882,-0.20216 -0.42125,-0.67241 -0.64985,-1.04499 -0.70639,-1.1513 -6.3408,-10.0195 -6.66918,-10.49686 l -0.31006,-0.45074 -0.2288,0.52881 c -0.12583,0.29085 -1.01619,2.14491 -1.97856,4.12015 -0.96238,1.97524 -2.12238,4.36426 -2.57777,5.30894 -0.45541,0.94467 -1.47498,3.05264 -2.26572,4.68435 -2.40086,4.95429 -3.4329,7.11345 -3.4329,7.18208 0,0.0359 0.46741,0.29673 1.03869,0.5795 2.02517,1.00241 3.58006,2.99979 4.28992,5.51077 0.3416,1.20832 0.35505,1.5082 0.41122,9.17352 l 0.0581,7.92437 h -2.82088 -2.82087 l -0.001,-6.51906 c -5.9e-4,-3.70463 -0.0706,-6.95724 -0.16199,-7.53401 -0.0884,-0.55821 -0.34923,-1.39152 -0.57951,-1.85179 -0.41552,-0.83051 -1.46344,-1.89569 -1.86497,-1.89569 -0.18618,0 -1.33446,2.24803 -4.02776,7.88533 -0.45134,0.94468 -1.57615,3.26344 -2.49959,5.15279 -1.22917,2.51487 -1.68308,3.60253 -1.69426,4.05978 -0.0119,0.48455 -0.0851,0.64342 -0.32687,0.70863 -0.17139,0.0462 -0.43579,0.3273 -0.58757,0.62459 -0.55128,1.07981 -6.57528,13.52671 -7.0061,14.47612 l -0.44268,0.97556 33.83778,0.0394 c 18.61078,0.0217 33.94318,0.03 34.072,0.0187 0.12882,-0.0114 0.21482,-0.10471 0.19112,-0.20735 z m 28.81492,0.0816 c 0.0397,-0.0385 -2.39302,-6.78639 -2.84627,-7.89497 -0.1229,-0.30058 -0.51386,-1.35456 -0.8688,-2.34218 -0.35495,-0.98761 -0.80852,-2.21726 -1.00794,-2.73254 -0.19941,-0.51528 -0.6173,-1.63952 -0.92864,-2.49832 -0.31134,-0.8588 -0.62757,-1.70199 -0.70273,-1.87374 -0.12163,-0.27797 -2.58068,-6.91359 -4.0216,-10.85209 -0.29849,-0.81586 -0.89935,-2.43196 -1.33526,-3.59135 -0.4359,-1.15937 -1.13867,-3.05653 -1.56168,-4.21592 -0.75058,-2.0571 -1.25758,-3.43768 -2.66646,-7.26074 -0.37978,-1.03056 -0.9726,-2.61153 -1.31737,-3.51327 -0.34477,-0.90174 -0.88477,-2.34218 -1.2,-3.20097 -0.6512,-1.77408 -1.22457,-3.32616 -2.50928,-6.79232 -1.17669,-3.17478 -2.32289,-6.29318 -2.9627,-8.06048 -0.46158,-1.27497 -0.9875,-2.33009 -1.10205,-2.21094 -0.0945,0.0983 -0.26447,66.92256 -0.17058,67.07449 0.0705,0.11408 3.94094,0.14007 12.63096,0.0848 6.89111,-0.0438 12.54779,-0.0976 12.5704,-0.11947 z m -191.397036,0.002 c 0,-0.0671 -3.08752,-6.49208 -6.14846,-12.79474 -1.53908,-3.16904 -1.68352,-3.40719 -2.00985,-3.31366 -0.19338,0.0554 -0.77319,0.22175 -1.28847,0.36961 -1.48752,0.42683 -5.09947,0.36866 -6.63617,-0.10689 -2.13504,-0.66071 -3.89356,-1.7309 -5.31718,-3.23589 -2.28486,-2.41548 -3.33819,-5.08676 -3.31682,-8.41157 0.014,-2.18701 0.32039,-3.45875 1.33098,-5.52564 0.65138,-1.33224 1.00693,-1.83848 1.99017,-2.83369 0.65842,-0.66643 1.59161,-1.46404 2.07377,-1.77248 l 0.87666,-0.56078 -0.71097,-1.44603 c -0.8665,-1.76235 -2.91325,-5.98429 -4.0317,-8.3164 -0.45306,-0.94468 -1.69659,-3.50936 -2.7634,-5.6993 -1.06682,-2.18994 -2.2824,-4.70335 -2.70131,-5.58535 -0.41892,-0.88201 -0.8293,-1.5811 -0.91195,-1.55355 -0.14417,0.048 -0.80665,1.05632 -3.61334,5.49937 -0.70526,1.11644 -2.10332,3.32847 -3.10682,4.91562 l -1.82453,2.88573 1.23091,0.17587 c 1.77749,0.25397 3.33725,0.76355 4.99712,1.63258 1.37976,0.72238 3.30495,2.11037 3.30621,2.38365 5.1e-4,0.10918 -1.91063,2.48385 -2.44231,3.03468 -0.10317,0.10689 -0.33177,0.37765 -0.508,0.60169 l -0.32042,0.40734 -0.74555,-0.54365 c -1.01591,-0.7408 -2.40011,-1.41702 -3.7959,-1.8544 -0.92434,-0.28965 -1.50491,-0.36342 -2.80511,-0.35642 -2.30729,0.0124 -2.50226,0.12109 -3.71055,2.06835 -1.20872,1.94796 -1.20329,1.93339 -0.92186,2.47446 0.55553,1.06803 1.52892,1.58548 5.36421,2.85158 6.24862,2.06277 8.55067,3.5206 9.85675,6.24205 0.50695,1.05632 0.56043,1.30172 0.62495,2.86773 0.0847,2.05487 -0.10308,3.04599 -0.87955,4.64316 -1.10614,2.27528 -3.43019,4.04748 -6.35236,4.84397 -1.77502,0.48382 -4.82832,0.59058 -6.88439,0.24072 -2.52159,-0.42908 -4.3911,-1.15766 -6.5052301,-2.53522 -0.99351,-0.64737 -3.08458,-2.4683 -3.08272,-2.68449 4.6e-4,-0.0546 0.84094,-0.97003 1.86771,-2.03437 l 1.8668701,-1.93518 0.9182,0.84216 c 2.285,2.09577 5.40417,3.24326 8.26379,3.04011 2.33342,-0.16577 3.78377,-0.91196 4.47719,-2.30348 0.72694,-1.45877 0.41245,-2.8697 -0.87476,-3.92447 -0.91085,-0.74637 -1.93328,-1.18566 -4.75687,-2.04383 -3.80102,-1.15523 -5.3732,-1.8152 -6.79831,-2.85379 l -0.73461,-0.53538 -0.41962,0.67173 c -0.23079,0.36944 -1.0668601,1.69057 -1.8579301,2.93582 -2.79719,4.40317 -7.70165,12.1404 -9.60076,15.14608 -1.05812,1.67466 -2.81691,4.45014 -3.90841,6.16774 -1.09151,1.7176 -2.65851,4.19445 -3.48223,5.50412 l -1.4976699,2.38121 h 34.1103 c 18.76067,0 34.1103,-0.0299 34.1103,-0.0665 z m -64.4482101,-9.64113 c 2.59748,-4.10307 4.89835,-7.74396 5.11305,-8.09085 0.2147,-0.34688 1.20434,-1.91209 2.1992,-3.47825 0.99486,-1.56614 3.26922,-5.15505 5.05411,-7.97535 l 3.24526,-5.12781 -0.40307,-0.8057 c -0.54877,-1.09698 -0.71848,-1.95359 -0.72297,-3.64941 -0.008,-3.11726 1.46471,-5.69926 4.1340301,-7.24652 1.02881,-0.59635 2.93067,-1.19391 4.2204,-1.32605 0.97232,-0.0996 1.05868,-0.14093 1.39836,-0.66883 1.93686,-3.01008 7.89019,-12.71357 7.83434,-12.76941 -0.0397,-0.0397 -0.65075,0.0124 -1.35788,0.1158 -2.0171,0.29494 -5.21776,0.11381 -6.92688,-0.39198 -3.59854,-1.06496 -6.5809,-3.14918 -8.6704301,-6.05931 -0.29291,-0.40793 -0.61818,-0.74169 -0.72284,-0.74169 -0.10465,0 -0.77783,-0.16795 -1.49594,-0.37322 -0.71812,-0.20527 -2.46504,-0.69439 -3.88206,-1.08694 -1.41702,-0.39255 -4.60691,-1.27631 -7.08865,-1.96392 -2.48174,-0.6876 -4.56355,-1.21848 -4.62624,-1.17973 -0.0627,0.0388 -0.60435,0.65129 -1.2036999,1.36122 l -1.08972,1.29077 -0.0949,34.11773 c -0.0835,30.02665 -0.0674,34.08126 0.13448,33.81366 0.12615,-0.16724 2.3545799,-3.66113 4.9520599,-7.76421 z M 222.24734,200.95474 c -0.0926,-28.72792 -0.14392,-34.12598 -0.32713,-34.39098 -0.11953,-0.17289 -0.66127,-0.79032 -1.20386,-1.37206 l -0.98653,-1.05771 -1.95181,0.55636 c -1.0735,0.30601 -3.88411,1.08692 -6.24581,1.73538 -5.41226,1.48607 -11.41701,3.16045 -11.66962,3.25399 -0.12269,0.0454 0.23663,0.68485 0.98664,1.75576 l 1.1796,1.68432 -0.59628,0.5073 c -0.87156,0.74147 -3.08787,1.84627 -4.51056,2.24843 -0.99002,0.27986 -1.6458,0.35084 -3.26841,0.35377 -2.7975,0.005 -4.70487,-0.52956 -6.72538,-1.88502 l -1.08187,-0.72578 -0.84885,0.17791 c -0.46687,0.0978 -0.90081,0.23157 -0.96433,0.29716 -0.0635,0.0656 0.75299,1.48942 1.81446,3.16408 1.06146,1.67466 2.25953,3.57182 2.66237,4.21592 0.40284,0.6441 2.07627,3.30075 3.71875,5.90365 1.64247,2.60292 3.37277,5.35076 3.84511,6.10631 1.8712,2.99319 3.51363,5.60553 4.13152,6.57132 0.35714,0.55822 1.19995,1.89325 1.87292,2.96675 0.67296,1.07351 2.02482,3.2166 3.00413,4.76244 0.97931,1.54583 1.86499,2.94949 1.96818,3.11924 0.1032,0.16974 0.54454,0.87239 0.98078,1.56145 0.43623,0.68905 1.51643,2.4122 2.40044,3.82922 0.88401,1.41701 1.8813,2.99798 2.2162,3.51326 0.63594,0.97845 2.8928,4.56096 4.47566,7.10461 0.5077,0.81586 1.52564,2.43196 2.26211,3.59134 0.73646,1.15937 1.67369,2.65251 2.08273,3.31808 0.40904,0.66557 0.77632,1.21013 0.81618,1.21013 0.0398,0 0.0231,-15.33448 -0.0374,-34.07663 z m -174.797636,14.86613 0.57259,-0.15903 -0.94161,-1.98709 c -0.51789,-1.0929 -1.67431,-3.49142 -2.56981,-5.33006 -0.89551,-1.83862 -1.77452,-3.68309 -1.95336,-4.09881 -0.17883,-0.41571 -0.42646,-0.75584 -0.55028,-0.75584 -0.39288,0 -1.72953,1.52615 -2.22293,2.5381 -1.26131,2.58687 -0.92688,5.51177 0.88299,7.72253 0.67343,0.8226 1.91959,1.65953 2.93467,1.97093 0.89956,0.27596 3.01508,0.33054 3.84774,0.0993 z m 3.47812,-2.41763 c 1.56872,-2.05668 1.76644,-5.46375 0.44768,-7.71404 -0.62325,-1.06351 -1.86005,-2.18605 -3.00372,-2.72626 -0.82965,-0.39189 -1.27302,-0.49559 -2.31444,-0.54135 -0.70851,-0.0312 -1.2882,-0.005 -1.2882,0.0575 0,0.0628 0.88915,1.94958 1.97589,4.19291 1.08675,2.24331 2.31503,4.79897 2.72952,5.67924 0.4145,0.88027 0.81691,1.60049 0.89426,1.60049 0.0773,0 0.32891,-0.24684 0.55901,-0.54853 z m 112.799436,-5.7965 c 1.39292,-2.88861 2.49746,-5.28714 2.45452,-5.33008 -0.043,-0.043 -0.56113,0.0772 -1.15155,0.26709 -1.47669,0.47482 -2.61839,1.39778 -3.31207,2.6775 l -0.54278,1.00133 -0.0781,3.31834 c -0.043,1.82509 -0.0386,3.31822 0.01,3.31809 0.0482,-1.4e-4 1.22738,-2.36366 2.62031,-5.25227 z m 19.81423,-36.26675 c 0.14167,-0.0765 0.0869,-0.2613 -0.20436,-0.68997 -1.09026,-1.60446 -1.78654,-4.16011 -1.78209,-6.54102 0.006,-3.22367 1.07947,-5.94148 3.27465,-8.2909 2.33766,-2.5019 5.15186,-3.70866 8.66774,-3.71683 2.80158,-0.006 5.00667,0.6276 7.10757,2.04389 1.02748,0.69266 1.24082,0.89431 1.24217,1.17409 0.001,0.187 -2.45826,3.72874 -2.63196,3.79061 -0.0666,0.0237 -0.59439,-0.27427 -1.17288,-0.66219 -1.59886,-1.07215 -3.5753,-1.51292 -5.33213,-1.18913 -3.57555,0.65898 -6.06864,4.21998 -5.54469,7.91975 0.18759,1.32461 1.01546,3.04042 1.86679,3.86906 l 0.62866,0.61191 6.05609,-1.67795 c 3.33084,-0.92288 9.60447,-2.6577 13.94141,-3.85517 4.33693,-1.19746 7.94857,-2.19683 8.02587,-2.22081 0.0773,-0.024 -0.30917,-0.5615 -0.8588,-1.19448 -0.54964,-0.63299 -1.54441,-1.78515 -2.21062,-2.56036 -1.19185,-1.38685 -1.30713,-1.47175 -7.18268,-5.28994 -3.28427,-2.13425 -6.81458,-4.43057 -7.84514,-5.10291 -1.03056,-0.67235 -2.61152,-1.6983 -3.51326,-2.27991 -0.90174,-0.58159 -2.30705,-1.49367 -3.12291,-2.02684 -0.81586,-0.53315 -2.44799,-1.59415 -3.62696,-2.35777 -5.1424,-3.3307 -9.10404,-5.90781 -12.15565,-7.90745 -1.80208,-1.18085 -3.3388,-2.14699 -3.41494,-2.14699 -0.0761,0 -0.16184,-0.055 -0.19047,-0.12221 -0.0428,-0.10042 -2.49641,-1.71495 -5.74675,-3.78143 -0.71897,-0.4571 -5.13017,-3.32924 -11.94341,-7.77638 -1.19885,-0.78252 -2.20838,-1.3941 -2.2434,-1.35909 -0.035,0.035 0.23718,0.61169 0.60488,1.28149 0.80579,1.46782 5.49029,10.16032 7.17781,13.31907 1.26932,2.37594 1.65641,3.09727 6.21437,11.5802 1.55335,2.89097 3.11785,5.80698 3.47669,6.48002 1.14649,2.15043 0.74796,1.92636 3.42631,1.92636 h 2.33857 v 4.41222 4.41222 l 1.06305,1.95069 c 0.58468,1.07289 1.82381,3.37707 2.75365,5.12041 l 1.69059,3.16971 0.48637,-0.10376 c 0.2675,-0.0571 0.57344,-0.15077 0.67986,-0.20821 z m -10.96751,-23.10908 c -2.54869,-1.18001 -2.58541,-4.73125 -0.0624,-6.03595 0.65024,-0.33626 1.8156,-0.44858 2.56072,-0.24681 1.30927,0.35454 2.57604,1.98008 2.57144,3.29974 -0.002,0.59141 -0.47571,1.76791 -0.90147,2.23914 -0.87569,0.96923 -2.90092,1.33066 -4.1683,0.74388 z m 23.96828,22.46864 c 0.28543,-0.18445 0.0389,-0.18445 -0.39036,0 -0.20592,0.0885 -0.23251,0.13712 -0.0781,0.14278 0.12882,0.005 0.33962,-0.0595 0.46844,-0.14278 z m -170.822826,-0.67988 1.01494,-0.34749 0.0416,-4.0926 0.0416,-4.09259 h 2.80802 2.80802 v 1.24915 c 0,0.68705 0.0527,1.24844 0.11711,1.24755 0.0644,-0.001 0.75855,-1.21298 1.54253,-2.69351 0.78397,-1.48053 2.33551,-4.37825 3.44786,-6.43936 1.11235,-2.06112 2.34195,-4.34474 2.73243,-5.07472 0.39049,-0.72998 1.74657,-3.25953 3.01352,-5.62122 1.26696,-2.3617 2.58482,-4.82098 2.92858,-5.46509 0.34376,-0.6441 0.9917,-1.83861 1.43986,-2.65447 0.44817,-0.81586 2.27869,-4.22372 4.06782,-7.57304 1.78912,-3.34932 3.79536,-7.07337 4.45828,-8.27569 0.66293,-1.20232 1.17651,-2.21573 1.1413,-2.25201 -0.0352,-0.0363 -0.53791,0.25413 -1.11709,0.64536 -1.10273,0.74488 -3.01388,1.99023 -7.06466,4.60348 -1.33114,0.85874 -4.84441,3.14145 -7.80726,5.07268 -6.93615,4.52105 -8.4734,5.52093 -13.66271,8.88669 -0.77291,0.5013 -3.1268,2.03136 -5.23086,3.40013 -2.10405,1.36877 -4.78626,3.10989 -5.96044,3.86917 -1.17418,0.75928 -2.11629,1.3991 -2.09356,1.42183 0.0227,0.0227 0.49805,-0.16578 1.05627,-0.41889 2.08712,-0.94634 3.34867,-1.17703 6.45122,-1.17968 3.02694,-0.002 3.86766,0.14703 6.32052,1.12479 1.07966,0.43037 3.56812,1.89968 3.90517,2.3058 0.17083,0.20584 -0.0389,0.55696 -1.4123,2.36352 -0.88712,1.16696 -1.70549,2.15727 -1.8186,2.20067 -0.11311,0.0434 -0.4333,-0.0947 -0.71154,-0.30686 -0.66715,-0.50877 -2.13483,-1.23616 -3.39456,-1.68237 -0.82834,-0.29339 -1.34508,-0.36062 -2.81061,-0.36564 -1.5683,-0.005 -1.95385,0.0487 -3.04483,0.42716 -0.68704,0.23833 -1.60049,0.64809 -2.02989,0.91058 -2.24453,1.37209 -4.01601,3.76664 -4.6717,6.31482 -0.3123,1.21368 -0.3195,3.86579 -0.014,5.16131 0.31908,1.3532 1.23199,3.14818 2.19478,4.31542 0.74451,0.90259 0.90344,1.01355 1.80971,1.26336 4.60023,1.26805 6.67251,1.84837 7.00511,1.96169 0.64952,0.22131 1.43045,0.15569 2.49832,-0.20993 z m -19.2107101,-5.3869 c -0.37256,-1.19705 -0.61973,-3.02041 -0.61973,-4.57175 0,-4.84835 2.22252,-9.4891 6.0127401,-12.55496 0.52918,-0.42805 -0.0761,-0.0666 -2.1871801,1.30603 -1.11644,0.72592 -2.59201,1.68479 -3.27905,2.13082 -9.46788,6.14666 -8.69259,5.58615 -10.34333,7.47792 -0.83443,0.95628 -1.64875,1.87921 -1.8096,2.05097 -0.50229,0.53637 -1.08766,1.33309 -1.02408,1.39383 0.0335,0.0319 1.50125,0.45564 3.26179,0.94154 1.76054,0.4859 3.6577,1.0108 4.21592,1.16643 0.55822,0.15564 1.7176,0.47633 2.57639,0.71264 0.8588,0.23631 1.84252,0.52099 2.18604,0.63264 0.34351,0.11164 0.77531,0.20853 0.95953,0.21532 l 0.33495,0.0123 z m 47.0044201,-3.18506 c -2e-4,-0.59889 -0.87933,-2.24573 -1.56467,-2.93108 -0.35921,-0.3592 -1.04995,-0.83915 -1.535,-1.06656 -0.78775,-0.36932 -1.06528,-0.41322 -2.5995,-0.41123 -1.96519,0.002 -2.62634,0.23331 -3.91282,1.36572 -1.16306,1.02376 -2.2085,2.97317 -1.7504,3.26394 0.10898,0.0692 2.71013,0.12683 5.78033,0.12814 l 5.58219,0.002 z M 6.0451339,148.13514 c 0.64411,-0.41376 2.15481,-1.39567 3.35712,-2.18201 1.2023301,-0.78634 5.4885101,-3.57417 9.5248601,-6.19519 4.03635,-2.62102 10.88723,-7.07171 15.22416,-9.89042 4.33693,-2.81871 8.48258,-5.51198 9.21256,-5.98505 0.72998,-0.47307 2.34608,-1.52563 3.59134,-2.33903 1.24526,-0.8134 3.63428,-2.36056 5.30893,-3.43813 1.67466,-1.07757 3.21241,-2.08658 3.41722,-2.24224 0.36062,-0.27406 0.0126,-0.28296 -11.00823,-0.28152 l -11.38062,0.001 -2.60465,3.00431 c -1.43256,1.65237 -2.73357,3.14484 -2.89114,3.3166 -0.15757,0.17176 -0.44923,0.52309 -0.64814,0.78073 -0.1989,0.25764 -0.62285,0.7495 -0.94211,1.09301 -0.55657,0.59887 -5.26696,6.01884 -9.69031,11.15007 -1.15429,1.33902 -3.12171,3.59809 -4.37206,5.02018 -1.25035,1.42208 -2.8478101,3.24898 -3.5499001,4.05977 -0.70209,0.8108 -1.461,1.68496 -1.68647,1.94261 -0.22546,0.25764 -0.91579,1.06569 -1.53408,1.79566 -0.61828,0.72998 -1.17684,1.35066 -1.24125,1.37929 -0.0644,0.0286 -0.11711,0.12124 -0.11711,0.20581 0,0.0846 0.19323,0.0194 0.4294,-0.14493 0.23617,-0.16428 0.95639,-0.63723 1.60048,-1.051 z m 200.1545461,0.35522 c -0.45937,-0.53526 -0.98496,-1.15008 -1.16799,-1.36626 -0.18302,-0.21619 -1.37753,-1.58977 -2.65447,-3.0524 -1.27693,-1.46264 -3.16488,-3.6332 -4.19543,-4.82348 -1.03056,-1.19028 -2.44348,-2.80419 -3.13981,-3.58647 -0.69634,-0.78229 -1.71519,-1.95634 -2.26411,-2.60901 -1.22587,-1.45756 -2.75943,-3.23231 -3.71517,-4.29945 -0.39493,-0.44097 -1.06939,-1.21027 -1.49879,-1.70954 -0.71773,-0.83453 -2.12588,-2.45132 -4.20457,-4.82752 -0.45077,-0.51528 -1.72801,-1.99085 -2.83834,-3.27904 -1.11031,-1.2882 -2.22243,-2.57054 -2.47134,-2.84966 l -0.45259,-0.50746 h -11.39269 -11.3927 l 3.76416,2.45928 c 2.07029,1.35261 4.96058,3.23221 6.42286,4.17688 1.46229,0.94468 4.0536,2.63105 5.75848,3.74749 1.70488,1.11643 3.47863,2.27294 3.94167,2.57 0.46304,0.29706 1.7202,1.11056 2.7937,1.80778 1.0735,0.69721 2.44367,1.5862 3.04483,1.97552 0.60116,0.38933 2.147,1.39619 3.4352,2.23747 1.28819,0.84127 4.02854,2.61812 6.08966,3.94853 2.06112,1.33041 5.30975,3.44491 7.21919,4.69889 1.90943,1.25398 4.08766,2.67573 4.8405,3.15945 0.75283,0.48372 2.14111,1.3796 3.08506,1.99085 0.94394,0.61125 1.74138,1.11136 1.77208,1.11136 0.0307,0 -0.32003,-0.43794 -0.77939,-0.97321 z M 63.678894,111.30637 c 6.60593,-3.21031 8.93678,-4.3399 10.91398,-5.28918 1.0735,-0.51539 3.18146,-1.53238 4.68436,-2.25995 1.5029,-0.72758 4.34864,-2.09862 6.32388,-3.04675 1.97524,-0.948118 3.62647,-1.758268 3.66941,-1.800308 0.10065,-0.0986 0.0262,-0.0776 -3.66941,1.0339 -3.47689,1.045698 -15.16878,4.535728 -28.65265,8.552808 -1.58877,0.47333 -3.94267,1.17954 -5.23086,1.56937 -1.2882,0.38983 -3.72084,1.11668 -5.40586,1.61522 -5.19146,1.53598 -5.69687,1.38431 4.64132,1.3928 l 9.0726,0.007 z m 79.149426,0.78722 c -2.49575,-1.2366 -11.96074,-5.81876 -15.53645,-7.52145 -0.77292,-0.36805 -2.81061,-1.35324 -4.52821,-2.1893 -2.91237,-1.41764 -4.10962,-1.99639 -9.60293,-4.642068 -1.15937,-0.55838 -3.36747,-1.62758 -4.90688,-2.37601 l -2.79893,-1.36077 -0.63627,0.31545 c -1.52218,0.75467 -8.686436,4.21489 -12.815586,6.189718 -0.94468,0.45181 -5.0552,2.43731 -9.13449,4.41222 -4.0793,1.97491 -8.26008,3.99639 -9.29064,4.49219 -1.03056,0.4958 -1.90888,0.94428 -1.95182,0.99661 -0.043,0.0524 -0.14834,0.10752 -0.23422,0.12263 -0.0859,0.0151 -1.31552,0.59014 -2.73254,1.27787 l -2.57639,1.25041 39.348586,-2e-4 39.34858,-2e-4 z m 24.82709,0.52194 c -0.72998,-0.24417 -2.45148,-0.77424 -3.82556,-1.17792 -3.57815,-1.05118 -10.05155,-2.97578 -11.78896,-3.50495 -0.81586,-0.2485 -2.71303,-0.81581 -4.21592,-1.2607 -1.5029,-0.44489 -3.25953,-0.96973 -3.90363,-1.1663 -0.6441,-0.19657 -2.01427,-0.60801 -3.04483,-0.9143 -1.03056,-0.30629 -3.06825,-0.91321 -4.52822,-1.3487 -1.45995,-0.43549 -3.70844,-1.10525 -4.99665,-1.48834 -1.28819,-0.38309 -2.6935,-0.80342 -3.1229,-0.93406 -4.68098,-1.424188 -6.40209,-1.921568 -6.45751,-1.866138 -0.0362,0.0362 0.10202,0.13167 0.30716,0.21216 0.40447,0.15869 3.41052,1.600868 8.33638,3.999448 1.7176,0.83636 3.82556,1.85543 4.68436,2.2646 0.8588,0.40917 2.75597,1.32267 4.21592,2.03 1.45996,0.70733 3.56792,1.72756 4.68436,2.26718 1.11644,0.53961 3.119,1.51166 4.45014,2.16011 l 2.42025,1.17899 9.05642,-0.004 9.05642,-0.004 z"
       id="path1-0"
       inkscape:export-filename="Logo black.svg"
       inkscape:export-xdpi="96"
       inkscape:export-ydpi="96" /></g></svg>
